<?xml version="1.0" encoding="utf-8"?>
<!-- Generator: Adobe Illustrator 15.0.0, SVG Export Plug-In  -->
<!DOCTYPE svg PUBLIC "-//W3C//DTD SVG 1.1//EN" "http://www.w3.org/Graphics/SVG/1.1/DTD/svg11.dtd" [
	<!ENTITY ns_flows "http://ns.adobe.com/Flows/1.0/">
]>
<svg version="1.1"
	 xmlns="http://www.w3.org/2000/svg" xmlns:xlink="http://www.w3.org/1999/xlink" xmlns:a="http://ns.adobe.com/AdobeSVGViewerExtensions/3.0/"
	 x="0px" y="0px" width="41px" height="40px" viewBox="6.505 3.636 41 40" enable-background="new 6.505 3.636 41 40"
	 xml:space="preserve">
<defs>
</defs>
<path fill="#DDDDDD" d="M0,0v48.105h53.409V0H0z M40.242,29.1c-1.201,2.072,1.676,5.977-0.026,7.678s-5.351-0.646-7.804-0.001
	c-2.455,0.646-2.955,5.43-5.538,5.43c-2.583,0-3.575-3.991-5.538-5.43s-5.646,1.772-7.804,0.001
	c-2.158-1.773,0.522-5.082-0.026-7.678s-5.5-2.68-5.5-5.429c0-2.75,4.716-3.191,5.5-5.429s-1.591-6.059,0.026-7.677
	s5.85,0.812,7.804,0s2.788-5.43,5.538-5.43s3.409,4.407,5.538,5.43s6.146-2.023,7.804,0s-0.855,5.498,0.026,7.677
	s5.5,2.762,5.5,5.429S41.443,27.027,40.242,29.1z"/>
<path display="none" fill="none" stroke="#000000" stroke-width="3" stroke-miterlimit="10" d="M26.874,5.136
	c2.75,0,3.409,4.407,5.538,5.43s6.146-2.023,7.804,0s-0.855,5.498,0.026,7.677s5.5,2.762,5.5,5.429s-4.299,3.356-5.5,5.429
	s1.676,5.977-0.026,7.678s-5.351-0.646-7.804-0.001c-2.455,0.646-2.955,5.43-5.538,5.43c-2.583,0-3.575-3.991-5.538-5.43
	s-5.646,1.772-7.804,0.001c-2.158-1.773,0.522-5.082-0.026-7.678s-5.5-2.68-5.5-5.429c0-2.75,4.716-3.191,5.5-5.429
	s-1.591-6.059,0.026-7.677s5.85,0.812,7.804,0S24.124,5.136,26.874,5.136z"/>
</svg>
