<?xml version="1.0" encoding="utf-8"?>
<!-- Generator: Adobe Illustrator 15.0.0, SVG Export Plug-In  -->
<!DOCTYPE svg PUBLIC "-//W3C//DTD SVG 1.1//EN" "http://www.w3.org/Graphics/SVG/1.1/DTD/svg11.dtd" [
	<!ENTITY ns_flows "http://ns.adobe.com/Flows/1.0/">
]>
<svg version="1.1"
	 xmlns="http://www.w3.org/2000/svg" xmlns:xlink="http://www.w3.org/1999/xlink" xmlns:a="http://ns.adobe.com/AdobeSVGViewerExtensions/3.0/"
	 x="0px" y="0px" width="36px" height="36px" viewBox="11.092 8.146 36 36" enable-background="new 11.092 8.146 36 36"
	 xml:space="preserve">
<defs>
</defs>
<path display="none" fill="#DDDDDD" d="M0,0v54.545h53.788V0H0z M29.092,44.146c-9.94,0-18-8.061-18-18c0-9.94,8.06-18,18-18
	c9.94,0,18,8.06,18,18C47.093,36.085,39.032,44.146,29.092,44.146z"/>
<g>
	<path d="M29.092,11.146c8.271,0,15,6.729,15,15s-6.729,15-15,15s-15-6.729-15-15S20.821,11.146,29.092,11.146 M29.092,8.146
		c-9.94,0-18,8.06-18,18c0,9.94,8.06,18,18,18c9.94,0,18-8.061,18-18C47.093,16.205,39.032,8.146,29.092,8.146L29.092,8.146z"/>
</g>
</svg>
