<?xml version="1.0" standalone="no"?>
<!DOCTYPE svg PUBLIC "-//W3C//DTD SVG 1.1//EN" "http://www.w3.org/Graphics/SVG/1.1/DTD/svg11.dtd" >
<svg xmlns="http://www.w3.org/2000/svg">
<metadata></metadata>
<defs>
<font id="f_groteskdemi" horiz-adv-x="1269" >
<font-face units-per-em="2048" ascent="1573" descent="-475" />
<missing-glyph horiz-adv-x="471" />
<glyph unicode="&#xfb01;" horiz-adv-x="1191" d="M51 846v198h191v113q0 174 105 262t278 88q158 0 270.5 -73.5t155.5 -202.5l-236 -64q-25 66 -71.5 110t-114.5 44q-69 0 -109.5 -42t-40.5 -108v-127h201v-196h-201v-848h-237v846h-191zM819 0v1044h240v-1044h-240z" />
<glyph unicode="&#xfb02;" horiz-adv-x="1191" d="M51 846v198h191v119q0 177 102.5 260.5t304.5 83.5q88 0 170 -28h240v-1479h-240v1165q-11 62 -63.5 110t-126.5 48q-72 0 -111 -38t-39 -111v-130h201v-196h-201v-848h-237v846h-191z" />
<glyph unicode="&#xfb03;" horiz-adv-x="1769" d="M51 846v198h191v117q0 175 99 260.5t271 85.5q86 0 168.5 -26t137.5 -68q104 94 284 94q158 0 270.5 -73.5t155.5 -202.5l-235 -64q-25 66 -72 110t-115 44q-69 0 -109 -42t-40 -108v-127h200v-198h-200v-846h-238v846h-340v-846h-237v846h-191zM479 1044h340v113v19 q-16 60 -68.5 102.5t-125.5 42.5q-65 0 -105.5 -36t-40.5 -103v-138zM1397 0v1044h239v-1044h-239z" />
<glyph unicode="&#xfb04;" horiz-adv-x="1769" d="M51 846v198h191v117q0 175 99 260.5t271 85.5q83 0 164 -25t137 -65q103 90 314 90q88 0 170 -28h239v-1479h-239v1165q-11 62 -64 110t-127 48q-72 0 -110.5 -38t-38.5 -111v-130h200v-198h-200v-846h-238v846h-340v-846h-237v846h-191zM479 1044h340v132 q-16 60 -68.5 102.5t-125.5 42.5q-65 0 -105.5 -36t-40.5 -103v-138z" />
<glyph horiz-adv-x="2048" />
<glyph horiz-adv-x="2048" />
<glyph unicode="&#xd;" horiz-adv-x="2048" />
<glyph unicode=" "  horiz-adv-x="471" />
<glyph unicode="&#x09;" horiz-adv-x="471" />
<glyph unicode="&#xa0;" horiz-adv-x="471" />
<glyph unicode="!" horiz-adv-x="630" d="M184 0v268h262v-268h-262zM184 1479h262l-12 -598l-59 -447h-121l-57 447z" />
<glyph unicode="&#x22;" horiz-adv-x="735" d="M102 1479h222l-5 -410h-210zM412 1479l4 -410h211l6 410h-221z" />
<glyph unicode="#" horiz-adv-x="1331" d="M51 338v180h219l80 389h-192v180h229l72 336h194l-71 -336h327l70 336h197l-72 -336h176v-180h-215l-80 -389h191v-180h-228l-69 -338h-197l72 338h-328l-68 -338h-198l71 338h-180zM465 518h326l79 389h-325z" />
<glyph unicode="$" horiz-adv-x="1310" d="M92 408l234 88q4 -19 8.5 -34t16 -47.5t29 -59.5t41.5 -57t60.5 -53t79.5 -36v444q-24 5 -55 19q-52 21 -99 46t-97 64t-85.5 84t-58.5 106.5t-23 129.5q0 88 35 162.5t94 125t133 82t156 41.5v156h168v-156q155 -22 273.5 -116t171.5 -223l-201 -138q-2 8 -7.5 21.5 t-25.5 49.5t-45.5 66.5t-69.5 61.5t-96 45v-420q70 -25 105 -35q46 -15 88 -35t90 -56t83 -80.5t58 -111t23 -143.5q0 -172 -128.5 -293.5t-318.5 -140.5v-188h-168v188q-59 9 -115 30t-112 57.5t-102.5 85.5t-83.5 118.5t-56 151.5zM397 1104q0 -127 164 -193v373 q-89 -16 -126.5 -67.5t-37.5 -112.5zM729 205q54 9 92.5 33.5t57 56t26.5 59t8 52.5q0 15 -2.5 32t-13 44t-28 49t-51.5 43t-79 30l-10 2v-401z" />
<glyph unicode="%" horiz-adv-x="1513" d="M51 1106q0 154 85.5 256t230.5 102q138 0 225.5 -96.5t87.5 -255.5q0 -166 -86 -267.5t-227 -101.5q-147 0 -231.5 100t-84.5 263zM244 1110q0 -95 29.5 -151t93.5 -56q120 0 120 207q0 91 -29.5 146t-90.5 55q-43 0 -71.5 -30.5t-40 -74t-11.5 -96.5zM360 0l592 1423 h176l-583 -1423h-185zM829 338q0 154 83.5 256t228.5 102q139 0 227 -97t88 -255q0 -167 -86 -268t-229 -101q-147 0 -229.5 99.5t-82.5 263.5zM1020 342q0 -207 121 -207q125 0 125 207q0 91 -30.5 146t-94.5 55q-61 0 -91 -59t-30 -142z" />
<glyph unicode="&#x26;" horiz-adv-x="1388" d="M92 418q0 96 43 178t114 144.5t185 131.5q-69 170 -69 285q0 155 88.5 254.5t253.5 99.5q145 0 226 -85.5t81 -229.5q0 -111 -82 -210t-207 -171q26 -67 70 -155.5t82 -151.5q109 127 196 354l182 -125q-30 -71 -98 -185.5t-149 -219.5q20 -59 77.5 -100.5t118.5 -41.5 q44 0 96 9l-38 -207q-67 -17 -148 -17q-157 0 -264 158q-69 -72 -155.5 -115t-174.5 -43q-109 0 -193.5 37.5t-134.5 101t-75 141t-25 163.5zM332 442q0 -111 60 -175t136 -66q56 -1 110.5 29.5t88.5 78.5q-144 248 -207 377q-46 -30 -73.5 -51t-57 -51.5t-43.5 -65.5 t-14 -76zM590 1194q0 -81 53 -205q80 47 121 95.5t41 105.5q0 55 -28 88t-77 33q-44 0 -77 -31.5t-33 -85.5z" />
<glyph unicode="'" horiz-adv-x="423" d="M102 1479h220l-5 -410h-211z" />
<glyph unicode="(" horiz-adv-x="747" d="M123 735q0 157 38.5 295t98.5 233.5t136.5 171t148.5 117t139 60.5l43 -129q-25 -10 -53 -26t-67.5 -47.5t-75.5 -71.5t-73 -100.5t-63.5 -131t-43.5 -167t-17 -204.5t17 -204t43.5 -165.5t63 -129.5t72 -98.5t75.5 -69.5t67.5 -46.5t52.5 -25.5l-43 -137 q-68 19 -139.5 60.5t-148 116.5t-136 170.5t-97.5 233.5t-38 295z" />
<glyph unicode=")" horiz-adv-x="747" d="M20 1483l43 129q67 -19 139 -60.5t149 -117t137 -171t98.5 -233.5t38.5 -295t-38.5 -295t-98 -233.5t-136 -170.5t-148 -116.5t-138.5 -60.5l-43 137q25 10 52.5 25.5t67 46.5t75 69.5t72 98.5t63 129.5t43 165.5t16.5 204t-17 204.5t-43.5 167t-63 131t-72.5 100.5 t-75.5 71.5t-67.5 47.5t-53 26z" />
<glyph unicode="*" horiz-adv-x="952" d="M82 969v217l334 -76l-232 256l189 115l102 -338l103 338l190 -115l-231 -256l333 76v-217l-338 78l240 -254l-194 -121l-103 334l-102 -334l-193 121l240 254z" />
<glyph unicode="+" horiz-adv-x="1085" d="M78 532v191h362v371h205v-371h363v-191h-363v-370h-205v370h-362z" />
<glyph unicode="," horiz-adv-x="563" d="M102 -176q70 8 120 53t50 123l-141 51v250h289v-244q0 -86 -30 -155t-79 -110.5t-102 -65t-107 -29.5v127z" />
<glyph unicode="-" horiz-adv-x="737" d="M51 524l37 213h600l-37 -213h-600z" />
<glyph unicode="." horiz-adv-x="610" d="M164 0v301h282v-301h-282z" />
<glyph unicode="/" horiz-adv-x="915" d="M72 -205l575 1725h197l-572 -1725h-200z" />
<glyph unicode="0" d="M84 715q0 351 147.5 549t403.5 198q254 0 401.5 -198t147.5 -549q0 -347 -147.5 -551.5t-401.5 -204.5q-257 0 -404 204t-147 552zM334 715q0 -541 301 -541q299 0 299 541q0 164 -29.5 280t-97.5 184t-172 68q-155 0 -228 -140.5t-73 -391.5z" />
<glyph unicode="1" horiz-adv-x="860" d="M98 985v182q119 20 201.5 87t114.5 169h174v-1423h-244v1073z" />
<glyph unicode="2" d="M86 981q9 90 48.5 174t106 153.5t170 111.5t228.5 42q101 0 194.5 -31.5t165 -88t114 -141t42.5 -183.5q0 -72 -15.5 -134.5t-46 -111t-63.5 -86t-82.5 -71t-87.5 -55.5t-92 -48q-70 -34 -199 -100q-96 -50 -141 -102.5t-45 -88.5h762v-221h-1030q0 91 22.5 174.5t54 142 t75.5 111t78.5 81.5t70.5 54q76 51 286 172q95 54 143 119.5t48 159.5q0 106 -75.5 168.5t-180.5 62.5q-293 0 -322 -321z" />
<glyph unicode="3" d="M41 377l219 74q19 -110 107.5 -191.5t232.5 -81.5q77 0 137 22t94 57t51 74t17 79q0 84 -58 142.5t-173 68.5q-16 2 -64 2q-67 0 -100 -2v219q58 -4 96 -4q48 0 76 4q205 28 205 194q0 88 -69 148.5t-200 60.5q-76 0 -138 -22t-102 -60.5t-64.5 -84t-33.5 -97.5l-202 84 q43 173 188 286t352 113q149 0 265.5 -48.5t185.5 -144t70 -225.5q0 -96 -52 -175.5t-137 -127.5q100 -45 155.5 -131.5t55.5 -193.5q0 -139 -75.5 -244t-201.5 -159t-282 -54q-113 0 -210 33t-165.5 91t-114.5 132.5t-65 161.5z" />
<glyph unicode="4" d="M84 303v250q42 53 110.5 142.5t234.5 320.5t276 407h235v-903h242v-217h-240v-303h-240v303h-618zM299 516h406v557l-20 -29q-20 -29 -46.5 -67t-67.5 -95.5t-83 -115t-92.5 -125t-96.5 -125.5z" />
<glyph unicode="5" d="M74 322l217 73q37 -95 113 -157t196 -62q146 0 233 82.5t87 218.5q0 112 -76.5 188t-198.5 76q-95 0 -177 -47.5t-124 -128.5l-194 23l86 835h839v-219h-643l-51 -368q54 51 131 80.5t160 29.5q215 2 356 -124t141 -337q0 -161 -78 -282.5t-206 -182.5t-285 -61 q-204 0 -347.5 105t-178.5 258z" />
<glyph unicode="6" d="M100 684q0 125 22 237.5t70.5 212t119 172t174 114.5t229.5 42q142 0 271 -72t190 -196l-156 -135q-119 192 -320 192q-86 0 -154.5 -36t-109.5 -91t-67 -123t-33.5 -130t-3.5 -115q49 85 154.5 149t232.5 64q135 0 245 -60t175 -172.5t65 -257.5q0 -122 -41.5 -221 t-114 -164t-170 -100t-210.5 -35q-104 0 -191 28.5t-148 80.5t-106 119.5t-71.5 150.5t-39 168.5t-12.5 177.5zM379 461q0 -121 82 -201t207 -80q134 0 213.5 80t79.5 215q0 119 -77.5 197t-209.5 78q-130 0 -212.5 -77t-82.5 -212z" />
<glyph unicode="7" d="M129 1200v223h1042v-174q-204 -217 -347 -575t-130 -674h-262q-4 163 44.5 352.5t124.5 350.5t162 292t163 205h-797z" />
<glyph unicode="8" d="M82 406q0 108 64 199t163 132q-81 48 -132.5 132.5t-51.5 177.5q0 188 142.5 301.5t369.5 113.5q228 0 370.5 -113t141.5 -302q-1 -93 -53.5 -177t-132.5 -133q98 -41 162.5 -131.5t64.5 -197.5q0 -94 -32 -171.5t-85.5 -128t-125.5 -85t-149 -49.5t-159 -15 q-83 0 -161 15t-150.5 49t-126.5 84.5t-86.5 127.5t-32.5 171zM332 406q0 -98 79 -165t226 -67t225 67t78 165q0 99 -82 163t-221 64q-140 0 -222.5 -64t-82.5 -163zM362 1038q0 -86 74 -145t201 -59t198.5 59t71.5 145q0 94 -71.5 153.5t-198.5 59.5q-129 0 -202 -59.5 t-73 -153.5z" />
<glyph unicode="9" d="M80 940q0 149 71.5 269t192 185.5t264.5 65.5q120 0 218.5 -41t163.5 -110t110 -163.5t64.5 -197t19.5 -213.5q0 -124 -22.5 -236.5t-71.5 -211.5t-120 -171.5t-174 -114.5t-227 -42q-143 0 -271.5 73t-188.5 197l155 136q121 -195 316 -195q72 0 132.5 24.5t101 66 t70.5 93t45.5 107.5t21 106t1.5 92q-51 -83 -155 -143.5t-230 -60.5q-135 0 -246 60.5t-176 172t-65 252.5zM326 946q0 -118 78.5 -197t205.5 -79q128 0 211.5 79.5t83.5 208.5q0 125 -82.5 205t-201.5 80q-135 0 -215 -81t-80 -216z" />
<glyph unicode=":" horiz-adv-x="610" d="M164 0v301h282v-301h-282zM164 743v301h282v-301h-282z" />
<glyph unicode=";" horiz-adv-x="645" d="M164 -176q70 8 120 53t50 123l-137 51v250h284v-244q0 -86 -30 -155t-78.5 -110.5t-101.5 -65t-107 -29.5v127zM199 743v301h282v-301h-282z" />
<glyph unicode="&#x3c;" horiz-adv-x="1085" d="M78 483v160l930 401v-198l-686 -285l686 -278v-201z" />
<glyph unicode="=" horiz-adv-x="1085" d="M78 340v180h930v-180h-930zM78 733v182h930v-182h-930z" />
<glyph unicode="&#x3e;" horiz-adv-x="1085" d="M78 82v201l686 278l-686 285v198l930 -401v-160z" />
<glyph unicode="?" horiz-adv-x="1013" d="M113 1249q16 38 50 80.5t83.5 84t120 68.5t145.5 27q155 0 256.5 -83.5t101.5 -227.5q0 -53 -18 -99t-44.5 -78t-67.5 -61t-75 -46.5t-79 -36.5l-113 -46q-54 -22 -76 -48.5t-22 -61.5q0 -45 33.5 -77t95.5 -32q34 0 63.5 10t49.5 22t37.5 34t26 35.5t18 38.5t10.5 29 t6 20l162 -113q-35 -114 -132 -196t-245 -82q-150 0 -247 86.5t-97 230.5q0 53 19.5 99t45.5 75.5t67.5 56.5t69 40t66.5 28q88 34 123 49q106 45 106 117q0 57 -38.5 88t-106.5 31q-44 0 -88 -23t-76 -57t-54.5 -68.5t-31.5 -62.5zM373 0v260h262v-260h-262z" />
<glyph unicode="@" horiz-adv-x="1720" d="M123 440q0 187 74 374.5t196.5 334t294.5 238.5t354 92q125 0 229.5 -37.5t183 -110.5t121.5 -190t40 -267q-2 -97 -29.5 -204.5t-78 -208.5t-115.5 -182.5t-150 -131t-174 -49.5q-62 0 -102.5 48.5t-22.5 119.5q-53 -74 -128.5 -122t-149.5 -48q-111 0 -173.5 84.5 t-62.5 243.5q0 115 43 239.5t112.5 225.5t166.5 166t196 65q68 0 119.5 -41t62.5 -121l107 132h117l-256 -771q-10 -31 -2 -47t30 -16q63 0 138.5 97t130 243t59.5 276q9 229 -102.5 347t-321.5 118q-100 0 -205 -39.5t-202.5 -118.5t-174.5 -185.5t-123 -251.5t-46 -306 q0 -264 141 -404.5t393 -140.5q110 0 217 30.5t193 81.5t153.5 107.5t116.5 118.5l109 -108q-83 -100 -202.5 -183.5t-277.5 -139t-315 -56.5q-145 -1 -268 42.5t-216.5 128t-146.5 219.5t-53 308zM629 428q0 -84 24 -123t76 -39q94 0 189 176l122 369q3 73 -26 117.5 t-72 44.5q-71 0 -146 -92t-121 -220t-46 -233z" />
<glyph unicode="A" horiz-adv-x="1378" d="M57 0l492 1479h295l477 -1479h-293l-98 344h-486l-102 -344h-285zM520 588h340l-166 583z" />
<glyph unicode="B" horiz-adv-x="1462" d="M164 0v1479h680q241 -1 377 -107q137 -107 137 -312q0 -105 -62 -182q-62 -78 -161 -122q99 -41 167 -130.5t68 -201.5q0 -199 -130 -311.5t-370 -112.5h-706zM440 248h426q102 0 164 46.5t62 141.5q0 193 -250 193h-402v-381zM440 864h391q123 0 185.5 46t62.5 145 q0 90 -64 136t-157 46h-418v-373z" />
<glyph unicode="C" horiz-adv-x="1499" d="M102 735q0 236 83 413t243 274.5t379 97.5q218 0 374 -115t218 -315l-225 -109q-46 138 -146 221q-97 80 -226 80h-9q-202 -4 -308 -145.5t-106 -401.5q0 -251 107 -393.5t309 -142.5q144 0 243.5 70t161.5 223l227 -99q-65 -207 -229.5 -320.5t-390.5 -113.5 q-331 0 -518 208.5t-187 567.5z" />
<glyph unicode="D" horiz-adv-x="1515" d="M164 0v1479h588q147 0 266.5 -45t208 -133.5t137.5 -231t49 -328.5q0 -362 -190 -551.5t-523 -189.5h-536zM440 246h293q215 0 310.5 128.5t95.5 366.5q0 235 -98 367.5t-285 132.5h-316v-995z" />
<glyph unicode="E" horiz-adv-x="1441" d="M164 0v1479h1159v-244h-885v-367h776v-239h-776v-375h922v-254h-1196z" />
<glyph unicode="F" horiz-adv-x="1304" d="M164 0v1479h1120v-246h-846v-385h658v-242h-658v-606h-274z" />
<glyph unicode="G" horiz-adv-x="1591" d="M102 737q0 233 90.5 411.5t253.5 275t373 96.5q216 0 375.5 -100.5t226.5 -284.5l-223 -129q-44 132 -141.5 204t-243.5 72q-145 0 -244 -70t-144.5 -190.5t-45.5 -284.5q0 -120 25.5 -218t76 -172.5t133.5 -114.5q80 -39 184 -39h5q133 2 237 83t140 218v77h-365v238 h633v-809h-127l-61 186q-88 -109 -212.5 -168t-275.5 -59q-313 0 -491.5 209.5t-178.5 568.5z" />
<glyph unicode="H" horiz-adv-x="1536" d="M164 0v1479h276v-580h656v580h276v-1479h-276v645h-656v-645h-276z" />
<glyph unicode="I" horiz-adv-x="643" d="M184 0v1479h275v-1479h-275z" />
<glyph unicode="J" horiz-adv-x="1067" d="M72 338v129h250v-111q0 -73 35 -120.5t104 -47.5q80 0 123 48.5t43 138.5v1104h276v-1061q0 -103 -25.5 -185t-78 -144.5t-141 -96t-207.5 -33.5q-171 0 -275 102t-104 277z" />
<glyph unicode="K" horiz-adv-x="1386" d="M164 0v1479h270v-707l561 707h328l-510 -613v-4l553 -862h-322l-413 657l-195 -233v-424h-272z" />
<glyph unicode="L" horiz-adv-x="1239" d="M164 0v1479h274v-1227h781v-252h-1055z" />
<glyph unicode="M" horiz-adv-x="1808" d="M164 0v1479h411l324 -1004h12l324 1004h410v-1479h-259v1165l-397 -1165h-186l-379 1165v-1165h-260z" />
<glyph unicode="N" horiz-adv-x="1552" d="M164 0v1479h334l632 -1035v1035h259v-1479h-275l-686 1106v-1106h-264z" />
<glyph unicode="O" horiz-adv-x="1605" d="M102 737q0 233 89.5 411.5t249 275t364.5 96.5t363 -96.5t246.5 -275t88.5 -411.5q0 -181 -53 -329t-147 -246t-221.5 -150.5t-276.5 -52.5q-321 0 -512 211t-191 567zM381 737q0 -119 25.5 -217t76.5 -171t133 -113.5t189 -40.5q194 0 307 138t113 404q0 158 -43.5 279 t-140 195.5t-236.5 74.5q-204 0 -314 -150t-110 -399z" />
<glyph unicode="P" horiz-adv-x="1390" d="M164 0v1479h713q218 0 345.5 -117.5t127.5 -319.5q0 -209 -129 -331.5t-365 -122.5h-416v-588h-276zM440 829h396q239 0 239 207q0 95 -57 149t-146 54h-432v-410z" />
<glyph unicode="Q" horiz-adv-x="1607" d="M102 737q0 233 89.5 411.5t249 275t364.5 96.5t363.5 -96.5t247.5 -275t89 -411.5q0 -230 -86.5 -405t-238.5 -271v-2q10 -51 44 -93t95 -42q77 0 168 60l78 -170q-30 -30 -104.5 -60t-160.5 -30q-244 0 -292 262v2q-102 -29 -203 -29q-321 0 -512 211t-191 567zM377 737 q0 -160 46 -279.5t143.5 -190t238.5 -70.5q194 0 309 137.5t115 402.5q0 158 -44.5 278.5t-142 194.5t-237.5 74q-204 0 -316 -149.5t-112 -397.5z" />
<glyph unicode="R" horiz-adv-x="1480" d="M164 0v1479h715q224 0 354.5 -109t130.5 -303q0 -68 -25 -129.5t-66.5 -105.5t-88.5 -75.5t-97 -49.5q221 -92 228 -345q4 -143 28 -238.5t56 -123.5h-295q-56 70 -72 365q-12 241 -280 241h-312v-606h-276zM440 842h400q116 0 181.5 53t65.5 149q0 91 -57 143t-145 52 h-445v-397z" />
<glyph unicode="S" horiz-adv-x="1425" d="M84 401l233 88q40 -91 83 -141q125 -145 358 -145q151 0 226 59t75 135q0 144 -187 183q-272 56 -356 79q-61 16 -114 38.5t-105 58.5t-88.5 80.5t-59 107.5t-22.5 137q0 103 48.5 188t129.5 139t182.5 83t210.5 29q215 0 377 -93t230 -235l-211 -148q-4 10 -13 26.5 t-42.5 58.5t-75 74t-113 58.5t-154.5 26.5q-146 0 -220.5 -53.5t-74.5 -136.5q0 -67 52.5 -114.5t175.5 -78.5q191 -50 323 -76q62 -12 115 -30.5t105 -51t88 -75.5t58.5 -105.5t22.5 -138.5q0 -207 -162.5 -338t-418.5 -131q-76 0 -152 11.5t-161 43t-154.5 79.5 t-126.5 127.5t-82 180.5z" />
<glyph unicode="T" horiz-adv-x="1296" d="M20 1243v236h1256v-236h-494v-1243h-278v1243h-484z" />
<glyph unicode="U" horiz-adv-x="1540" d="M164 518v961h280v-947q0 -147 86 -239t244 -92q157 0 239.5 91.5t82.5 239.5v947h280v-940q0 -280 -162 -430t-452 -150q-122 0 -228.5 35.5t-189.5 103.5t-131.5 176t-48.5 244z" />
<glyph unicode="V" horiz-adv-x="1306" d="M20 1479h295l326 -1135l352 1135h293l-506 -1479h-288z" />
<glyph unicode="W" horiz-adv-x="2031" d="M20 1479h293l271 -1090l284 1090h301l277 -1090l276 1090h289l-434 -1479h-274l-281 1128h-10l-297 -1128h-273z" />
<glyph unicode="X" horiz-adv-x="1290" d="M20 0l461 762l-418 717h318l264 -496l287 496h313l-432 -717l457 -762h-322l-303 545l-313 -545h-312z" />
<glyph unicode="Y" horiz-adv-x="1327" d="M20 1479h304l335 -682l345 682h303l-508 -938v-541h-279v539z" />
<glyph unicode="Z" horiz-adv-x="1415" d="M92 0v221l864 1016l-821 -4v242l1170 4v-232l-883 -999q145 0 451.5 2t449.5 2v-248z" />
<glyph unicode="[" horiz-adv-x="743" d="M205 -367v2042h518v-190h-309v-1659h309v-193h-518z" />
<glyph unicode="\" horiz-adv-x="903" d="M72 1479h196l563 -1684h-200z" />
<glyph unicode="]" horiz-adv-x="743" d="M20 -174h308v1659h-308v190h519v-2042h-519v193z" />
<glyph unicode="^" horiz-adv-x="1116" d="M82 838l373 641h207l372 -641h-235l-244 434l-242 -434h-231z" />
<glyph unicode="_" horiz-adv-x="1003" d="M2 0h997v-190h-997v190z" />
<glyph unicode="`" horiz-adv-x="757" d="M141 1452h267l106 -297h-164z" />
<glyph unicode="a" horiz-adv-x="1165" d="M82 268q0 86 35 152t96 106t126 63t142 34q125 17 271 28v54q0 31 -9 59t-30.5 55t-63.5 43.5t-100 16.5q-56 0 -104.5 -19.5t-77 -46.5t-49.5 -54.5t-29 -46.5l-8 -20l-183 107q58 124 176.5 197t300.5 73q186 0 295 -93t109 -241v-446q0 -46 17.5 -72t42 -29.5 t44.5 -0.5t31 10l-35 -183q-43 -24 -131 -24q-75 0 -121.5 43.5t-60.5 113.5q-146 -163 -369 -163q-62 0 -117 17t-100 50.5t-71.5 89.5t-26.5 127zM317 297q-1 -63 43 -92q41 -27 97 -27h8q22 1 52.5 8.5t69.5 26.5t72.5 46t60 71.5t34.5 97.5v59q-54 -4 -166 -20 q-44 -6 -79 -13.5t-72.5 -20.5t-62.5 -30.5t-41 -44.5t-16 -61z" />
<glyph unicode="b" horiz-adv-x="1175" d="M123 0v1479h237v-568q40 69 122.5 113.5t183.5 44.5q188 0 308 -147t120 -396q0 -247 -124.5 -399t-330.5 -152q-92 0 -169 43.5t-122 112.5l-29 -131h-196zM362 498q2 -74 20.5 -131.5t44.5 -90.5t60 -54t62 -28.5t55 -7.5q122 0 186 90t64 250q0 158 -63 246t-181 88 q-26 0 -54 -6.5t-63 -26t-62.5 -50.5t-47 -86.5t-21.5 -127.5v-65z" />
<glyph unicode="c" horiz-adv-x="1071" d="M82 522q0 154 62.5 279t177 196.5t260.5 71.5q163 0 278 -88.5t160 -243.5l-197 -82q-24 99 -85 157t-154 58q-122 0 -194.5 -95t-72.5 -253q0 -159 74 -251.5t201 -92.5q176 0 248 178l178 -100q-56 -133 -171 -207t-269 -74q-224 0 -360 148.5t-136 398.5z" />
<glyph unicode="d" horiz-adv-x="1173" d="M82 526q0 251 120.5 397t319.5 146q97 0 174.5 -43t118.5 -108v561h236v-1479h-197l-29 137q-45 -69 -126.5 -115.5t-174.5 -46.5q-211 0 -326.5 149.5t-115.5 401.5zM319 526q0 -162 62 -254t186 -92q26 0 54.5 7.5t63 30t61 56t45.5 92t20 132.5v65q-1 69 -20 124 t-46 87t-62 53.5t-65 29t-57 7.5q-122 0 -182 -88.5t-60 -249.5z" />
<glyph unicode="e" horiz-adv-x="1124" d="M82 528q0 238 131.5 389.5t361.5 151.5q217 0 344.5 -151t127.5 -386l-3 -51l-73 -4h-649v-10q0 -124 70 -206q74 -85 192 -85q97 0 170 56.5t98 148.5l199 -72q-47 -156 -171.5 -245t-295.5 -89q-217 0 -359.5 148t-142.5 405zM332 662h465q-3 96 -68 157.5t-160 61.5 q-101 0 -166 -62t-71 -157z" />
<glyph unicode="f" horiz-adv-x="684" d="M20 846v198h189v154q0 89 22.5 152t63 96t85 47t97.5 14q121 0 207 -59l-57 -188q-65 36 -92 36q-39 0 -61.5 -25.5t-22.5 -68.5v-158h192v-198h-192v-846h-242v846h-189z" />
<glyph unicode="g" horiz-adv-x="1222" d="M82 -94h235q18 -69 78 -109.5t152 -40.5q161 0 242 89.5t81 254.5v60q-49 -75 -138 -129.5t-202 -55.5h-8q-196 0 -317 146q-123 149 -123 403q0 165 63 290t168.5 190t237.5 65q106 0 192.5 -51t130.5 -117l29 143h201v-919q0 -272 -149 -425q-146 -151 -414 -151h-11 q-186 2 -312.5 100t-135.5 257zM317 526q0 -157 74.5 -248.5t202.5 -91.5q43 0 88.5 19t87 55t68 97.5t26.5 138.5v61q0 127 -80 216t-196 89q-127 0 -199 -89.5t-72 -246.5z" />
<glyph unicode="h" horiz-adv-x="1146" d="M123 0v1479h242v-586q37 72 123 124t184 52q56 0 105.5 -10.5t97.5 -37.5t82.5 -69t55.5 -109.5t21 -154.5v-688h-241v670q0 103 -55 152.5t-138 49.5q-26 0 -53.5 -6.5t-61 -26t-59.5 -50.5t-43.5 -86.5t-17.5 -127.5v-575h-242z" />
<glyph unicode="i" horiz-adv-x="507" d="M129 1202v250h250v-250h-250zM135 0v1044h238v-1044h-238z" />
<glyph unicode="j" horiz-adv-x="550" d="M10 -137q34 -19 80 -19q80 0 80 86v1114h242v-1093q0 -71 -17 -127t-44 -90t-63.5 -56t-71 -30.5t-71.5 -9.5q-77 0 -120 28zM164 1202v250h254v-250h-254z" />
<glyph unicode="k" horiz-adv-x="1073" d="M123 0v1479h235v-922l390 487h288l-356 -430l383 -614h-283l-272 444l-143 -163v-281h-242z" />
<glyph unicode="l" horiz-adv-x="483" d="M123 0v1479h237v-1479h-237z" />
<glyph unicode="m" horiz-adv-x="1796" d="M123 0v1044h213l22 -167q37 76 120 134t179 58q104 0 192 -53.5t136 -153.5q44 86 131 146.5t197 60.5q59 0 111 -11.5t100.5 -40.5t83 -73t55 -113.5t20.5 -158.5v-672h-239v659q0 107 -51 160t-142 53q-40 0 -74 -11.5t-69.5 -41.5t-57.5 -94.5t-24 -157.5v-567h-233 v653q0 109 -50.5 164t-144.5 55q-30 0 -56.5 -5t-59 -24t-56.5 -50t-41.5 -88t-19.5 -134v-571h-242z" />
<glyph unicode="n" horiz-adv-x="1146" d="M123 0v1044h217l20 -157q38 72 125 127t183 55q56 0 106 -10.5t98.5 -37.5t83.5 -69t56.5 -109.5t21.5 -154.5v-688h-241v668q0 103 -54.5 150.5t-138.5 47.5q-22 0 -43 -4t-48.5 -14t-51 -31.5t-44 -52t-33.5 -80t-15 -111.5v-573h-242z" />
<glyph unicode="o" horiz-adv-x="1167" d="M82 524q0 156 60 279t174.5 194.5t265.5 71.5q222 0 362.5 -144.5t140.5 -394.5q0 -255 -139 -405t-364 -150q-233 0 -366.5 149t-133.5 400zM322 528q0 -163 66 -258.5t194 -95.5t196 95t68 259q0 159 -70 254t-194 95q-126 0 -193 -99.5t-67 -249.5z" />
<glyph unicode="p" horiz-adv-x="1191" d="M123 -367v1411h211l18 -139q45 69 131 116.5t179 47.5q214 0 331 -149.5t117 -401.5q0 -249 -126 -396t-329 -147q-103 0 -179.5 41.5t-117.5 106.5v-490h-235zM362 477q2 -71 22 -126t48.5 -86.5t64.5 -52t64.5 -27.5t54.5 -7q118 0 187 88.5t69 251.5t-64.5 258.5 t-193.5 95.5q-26 0 -56 -8.5t-65 -31.5t-63 -58t-47.5 -94t-20.5 -133v-70z" />
<glyph unicode="q" horiz-adv-x="1173" d="M82 518q0 250 115 400.5t319 150.5q93 0 174.5 -47t126.5 -117l19 139h215v-1411h-236v490q-43 -64 -118.5 -106t-178.5 -42q-201 0 -318.5 145.5t-117.5 397.5zM317 518q0 -164 65 -252t183 -88q26 0 53 6t62.5 25.5t62.5 50.5t46.5 87.5t21.5 129.5v70q-2 74 -20.5 133 t-45.5 94t-61 58t-63 31.5t-54 8.5q-129 0 -189.5 -94t-60.5 -260z" />
<glyph unicode="r" horiz-adv-x="733" d="M123 0v1044h213l20 -176q24 78 85 138q60 59 138 59h3q51 -1 97 -28.5t64 -61.5l-114 -199q-37 55 -94 55q-20 0 -39 -4.5t-44 -22t-43.5 -47t-32.5 -85.5t-16 -131v-541h-237z" />
<glyph unicode="s" horiz-adv-x="1034" d="M61 244l160 121q17 -26 31.5 -45.5t44.5 -48t62 -47t80.5 -32.5t103.5 -14q91 0 139.5 33t48.5 86q0 38 -27.5 61t-87.5 35q-90 18 -223 49q-130 30 -211.5 106t-81.5 195q0 149 113 235.5t297 86.5q147 0 258 -56t172 -137l-137 -149q-44 58 -119.5 103.5t-177.5 45.5 q-86 0 -132 -31.5t-46 -86.5q0 -36 33.5 -61t109.5 -42q18 -4 96.5 -21.5t120.5 -25.5q124 -25 200.5 -98.5t76.5 -194.5q0 -101 -57.5 -177t-153.5 -115t-213 -39q-173 0 -309.5 79.5t-170.5 184.5z" />
<glyph unicode="t" horiz-adv-x="731" d="M20 846v198h189v191l231 209v-400h209v-198h-207v-553q0 -60 38 -91q27 -22 64 -22q16 0 34 4l81 19l-32 -191q-74 -35 -168 -37h-9q-108 0 -174 74q-68 77 -69 205v592h-187z" />
<glyph unicode="u" horiz-adv-x="1146" d="M113 377v667h241v-651q0 -104 56 -156.5t139 -52.5q24 0 45.5 4t49 14t50 31t42.5 52t32 80.5t14 111.5v567h242v-1044h-217l-21 160q-38 -73 -124 -128.5t-183 -56.5h-6q-67 1 -127 21q-63 22 -116.5 67t-85 125.5t-31.5 188.5z" />
<glyph unicode="v" horiz-adv-x="978" d="M10 1044h254l225 -731l232 731h248l-369 -1044h-225z" />
<glyph unicode="w" horiz-adv-x="1527" d="M10 1044h246l193 -727l186 727h262l186 -725l191 725h244l-322 -1044h-235l-195 762l-195 -762h-235z" />
<glyph unicode="x" horiz-adv-x="960" d="M10 0l326 553l-299 491h258l176 -317l180 317h252l-291 -491l338 -553h-266l-215 362l-199 -362h-260z" />
<glyph unicode="y" horiz-adv-x="985" d="M10 1044h250l240 -722l233 722h242q-275 -793 -410 -1148q-47 -127 -120.5 -195t-198.5 -68q-134 0 -205 64l88 174q49 -29 94 -29q81 0 121 111l31 90z" />
<glyph unicode="z" horiz-adv-x="966" d="M49 0v176l567 668l-540 -4v200l837 4v-170l-567 -663l572 4v-211z" />
<glyph unicode="{" horiz-adv-x="772" d="M143 575v256q14 0 37.5 -2t50 5.5t49.5 19t37 38.5t11 64q-5 54 -30.5 148.5t-29.5 157.5q-9 156 111 248t323 92l29 -150q-125 0 -182 -60t-47 -143l39 -334q6 -50 -11 -90t-49.5 -64.5t-70 -39t-78.5 -19.5q40 -4 78 -19t70.5 -40t49.5 -65.5t11 -88.5l-39 -333 q-10 -82 47 -141.5t182 -59.5l-29 -150q-203 0 -323 91.5t-111 246.5q4 64 29.5 158.5t30.5 149.5q3 37 -11.5 64t-37.5 38t-50 18.5t-50 5.5t-36 -2z" />
<glyph unicode="|" horiz-adv-x="782" d="M287 1479h209l-9 -1846h-192z" />
<glyph unicode="}" horiz-adv-x="772" d="M41 -45q125 0 182 59.5t47 141.5l-39 333q-6 48 11 88.5t49.5 65.5t70.5 40t78 19q-41 5 -78.5 19.5t-70 39t-49.5 64.5t-11 90l39 334q10 83 -47 143t-182 60l29 150q203 0 323 -92t111 -248q-4 -63 -29.5 -157.5t-30.5 -148.5q-3 -37 11 -64t37 -38.5t49.5 -19t50 -5.5 t37.5 2v-256q-13 0 -36 2t-50 -5.5t-50 -18.5t-37.5 -38t-11.5 -64q5 -55 30.5 -149.5t29.5 -158.5q9 -155 -111 -246.5t-323 -91.5z" />
<glyph unicode="~" horiz-adv-x="1210" d="M41 754q121 137 293 137q54 0 123 -23.5t190 -81.5q64 -34 132.5 -56.5t103.5 -22.5q155 0 252 129l34 -207q-122 -135 -295 -135q-110 0 -311 104q-65 33 -133 55.5t-104 22.5q-153 0 -250 -127z" />
<glyph unicode="&#xa1;" horiz-adv-x="628" d="M186 0l13 600l47 444h141l49 -444l13 -600h-263zM186 1219v260h263v-260h-263z" />
<glyph unicode="&#xa2;" horiz-adv-x="1310" d="M186 522q0 238 140 390.5t366 152.5l29 184h162l-33 -209q108 -34 183 -111t110 -192l-199 -82q-32 127 -129 176l-98 -647q174 6 241 172l185 -100q-57 -131 -179 -204.5t-280 -71.5l-33 -203h-164l37 225q-154 48 -246 185t-92 335zM416 522q0 -109 38 -187t105 -118 l98 641q-118 -10 -179.5 -103.5t-61.5 -232.5z" />
<glyph unicode="&#xa3;" horiz-adv-x="1310" d="M31 180q0 105 70 169.5t180 64.5q53 0 98.5 -15t105.5 -45q15 46 15 95q0 25 -11 75h-239v135h194l-14 37q-33 84 -49.5 131t-34.5 127t-18 146q-1 195 132 308.5t335 113.5q185 0 307 -108t160 -271l-230 -109q-10 52 -28 95.5t-47 83.5t-74.5 62.5t-102.5 22.5 q-90 0 -143 -54t-53 -146q0 -38 12.5 -93.5t22.5 -88t34 -105.5q35 -113 45 -152h461v-135h-436v-14q0 -149 -39 -242q81 -49 132.5 -70.5t101.5 -21.5q67 0 107 38.5t40 107.5h213q6 -167 -85.5 -265t-262.5 -98q-88 0 -171 38.5t-181 108.5q-118 -147 -299 -147 q-111 0 -179.5 64.5t-68.5 156.5zM188 182q0 -33 24.5 -54.5t63.5 -21.5q41 0 73 22t71 75q-53 35 -83 48t-61 13q-42 0 -65 -23t-23 -59z" />
<glyph unicode="&#xa4;" horiz-adv-x="1310" d="M160 330l106 106q-73 115 -73 248t73 248l-106 106l143 144l105 -107q118 72 249 72q133 0 244 -72l107 109l143 -146l-107 -108q74 -117 74 -246t-74 -246l107 -108l-143 -146l-107 109q-111 -72 -244 -72q-131 0 -249 72l-105 -107zM408 684q0 -109 70.5 -180.5 t176.5 -71.5q105 0 175.5 72t70.5 180q0 109 -70.5 180.5t-175.5 71.5q-106 0 -176.5 -71t-70.5 -181z" />
<glyph unicode="&#xa5;" horiz-adv-x="1310" d="M100 1479h289l266 -617l271 617h286l-407 -820h352v-135h-369v-174h367v-137h-367v-213h-272v213h-360v137h360v174h-360v135h342z" />
<glyph unicode="&#xa6;" horiz-adv-x="618" d="M205 -369v813h209v-813h-209zM205 666v813h209v-813h-209z" />
<glyph unicode="&#xa7;" horiz-adv-x="1159" d="M102 561q0 203 267 305q-101 51 -158 136t-57 174q0 155 125.5 250.5t306.5 95.5q171 0 282.5 -74t165.5 -201l-196 -106q-36 84 -105.5 137t-148.5 53q-84 0 -136.5 -39t-52.5 -102q0 -60 57 -111t199 -116q72 -34 115.5 -56t96.5 -53.5t83 -60t58.5 -66t40.5 -81.5 t12 -97q0 -40 -11.5 -77t-24.5 -62.5t-41.5 -53t-44.5 -41t-52 -33.5t-44.5 -24t-41.5 -20q103 -52 163 -135.5t60 -170.5q0 -158 -124 -256t-314 -98q-175 0 -297 82.5t-170 212.5l202 119q25 -85 106 -148t167 -63q76 0 130 37.5t54 99.5q0 60 -61 115t-203 117 q-66 29 -113 52.5t-97 53.5t-83 60.5t-61 67.5t-41 81.5t-13 95.5zM332 610q0 -35 12.5 -65t28.5 -50t48.5 -41.5t54 -33t63.5 -31.5q46 -20 104 -55q77 21 129.5 62.5t52.5 97.5q0 34 -13 64t-30.5 51t-48.5 42.5t-55 34.5t-62 31q-53 24 -102 51q-77 -16 -129.5 -58 t-52.5 -100z" />
<glyph unicode="&#xa8;" horiz-adv-x="1024" d="M221 1182v221h228v-221h-228zM578 1182v221h225v-221h-225z" />
<glyph unicode="&#xa9;" horiz-adv-x="1714" d="M82 739q0 170 61.5 317t166 248.5t247 159.5t301.5 58t301 -58t246.5 -159.5t165.5 -248.5t61 -317q0 -169 -61 -315.5t-165.5 -248t-246.5 -159t-301 -57.5t-301.5 57.5t-247 159t-166 248t-61.5 315.5zM219 739q0 -191 84.5 -341.5t230 -233t324.5 -82.5t324.5 82.5 t230 233t84.5 341.5q0 144 -49.5 268t-135 210t-203 135t-251.5 49t-251.5 -49t-203 -135t-135 -210t-49.5 -268zM424 741q0 229 121 366.5t325 137.5q138 0 236.5 -73t140.5 -201l-153 -74q-29 88 -87 139t-141 51q-123 0 -189.5 -87t-66.5 -259q0 -161 64 -250t190 -90 q180 -3 246 185l156 -66q-44 -131 -151.5 -205.5t-250.5 -74.5q-198 0 -319 137t-121 364z" />
<glyph unicode="&#xaa;" horiz-adv-x="880" d="M106 971q-1 49 15 87.5t41.5 62t62 40.5t68 24.5t69.5 12.5q82 12 181 19v36q0 45 -29 79t-102 34q-36 0 -67.5 -12.5t-50.5 -31t-33 -36.5t-19 -30l-6 -13l-117 72q33 79 111.5 127.5t197.5 48.5q121 0 193.5 -62.5t72.5 -158.5v-287q0 -30 11 -46.5t26.5 -19t28 -0.5 t20.5 7l-22 -119q-34 -17 -84 -17t-81.5 29.5t-39.5 73.5q-100 -109 -240 -109q-84 0 -145 50t-62 139zM264 987q1 -40 28.5 -59t65.5 -17q21 0 47.5 7t58 23t54 50.5t25.5 81.5v37l-107 -12q-79 -9 -126 -33.5t-46 -77.5z" />
<glyph unicode="&#xab;" horiz-adv-x="1052" d="M82 539l276 505h215l-278 -503l278 -504h-215zM500 539l278 505h213l-276 -503l276 -504h-213z" />
<glyph unicode="&#xac;" horiz-adv-x="1085" d="M78 733v182h930v-575h-205v393h-725z" />
<glyph unicode="&#xad;" horiz-adv-x="737" d="M51 524l37 213h600l-37 -213h-600z" />
<glyph unicode="&#xae;" horiz-adv-x="1714" d="M82 739q0 170 61.5 317t166 248.5t247 159.5t301.5 58t301 -58t246.5 -159.5t165.5 -248.5t61 -317q0 -169 -61 -315.5t-165.5 -248t-246.5 -159t-301 -57.5t-301.5 57.5t-247 159t-166 248t-61.5 315.5zM219 739q0 -191 84.5 -341.5t230 -233t324.5 -82.5t324.5 82.5 t230 233t84.5 341.5q0 144 -49.5 268t-135 210t-203 135t-251.5 49t-251.5 -49t-203 -135t-135 -210t-49.5 -268zM518 272v959h402q147 0 234 -76.5t83 -206.5q-3 -80 -53.5 -138.5t-120.5 -78.5q54 -22 94 -75t43 -134q4 -90 20 -159t37 -91h-194q-35 41 -43 242 q-9 145 -162 145h-162v-387h-178zM696 825h203q75 0 116.5 33.5t41.5 93.5q0 56 -36.5 86.5t-92.5 30.5h-232v-244z" />
<glyph unicode="&#xaf;" horiz-adv-x="1146" d="M283 1196v170h581v-170h-581z" />
<glyph unicode="&#xb0;" horiz-adv-x="712" d="M82 1208q0 112 80.5 191.5t191.5 79.5q113 0 195 -79.5t82 -191.5q0 -110 -82 -188t-195 -78q-111 0 -191.5 78t-80.5 188zM197 1208q0 -71 44.5 -116t112.5 -45q70 0 116 45t46 116q0 73 -46 119.5t-116 46.5q-68 0 -112.5 -46.5t-44.5 -119.5z" />
<glyph unicode="&#xb1;" horiz-adv-x="1085" d="M78 0v190h930v-190h-930zM78 733v193h362v368h205v-368h363v-193h-363v-368h-205v368h-362z" />
<glyph unicode="&#xb2;" horiz-adv-x="911" d="M98 1149q5 59 29 112.5t66 97.5t108.5 70.5t149.5 26.5q146 0 244.5 -80t101.5 -213q5 -209 -256 -319q-58 -24 -131 -60q-60 -28 -87.5 -60t-27.5 -56h489v-146h-675q0 71 21 135.5t55 109.5t65 74t61 48q48 31 187 104q30 16 52 33t34.5 36t20 32t10 33t3 25.5 t0.5 21.5q0 45 -40 91t-125 46q-48 0 -83.5 -14t-55 -33.5t-32 -50.5t-17 -54t-7.5 -55z" />
<glyph unicode="&#xb3;" horiz-adv-x="911" d="M72 768l161 49q10 -68 64 -117t141 -49q85 0 135 37t50 98q0 54 -39 88.5t-111 40.5q-57 5 -104 0v138q67 -3 112 2q129 18 129 123q0 57 -42.5 96t-118.5 39q-89 0 -140 -49t-65 -121l-146 53q25 113 120 185.5t231 72.5q147 0 240.5 -72t94.5 -196q0 -63 -35 -114 t-90 -81q64 -29 104 -83t40 -120q0 -125 -101.5 -202.5t-263.5 -77.5q-142 0 -240.5 74t-125.5 186z" />
<glyph unicode="&#xb4;" horiz-adv-x="757" d="M287 1155l129 297h278l-245 -297h-162z" />
<glyph unicode="&#xb6;" horiz-adv-x="1026" d="M20 1053q0 175 124 300.5t298 125.5h523l41 -203h-142v-1641h-190v1641h-139v-1641h-193v885l12 115q-144 29 -239 147t-95 271z" />
<glyph unicode="&#xb7;" horiz-adv-x="610" d="M164 524v301h282v-301h-282z" />
<glyph unicode="&#xb8;" horiz-adv-x="583" d="M43 -340l76 113q27 -24 70.5 -42t80.5 -18q40 0 65 14t25 37q0 46 -73 46h-123l53 229h129l-31 -121h37q72 0 119 -38t47 -105q0 -82 -74 -136.5t-186 -54.5q-63 0 -126.5 22.5t-88.5 53.5z" />
<glyph unicode="&#xb9;" horiz-adv-x="706" d="M127 1126v140q160 33 201 168h133v-912h-180v658z" />
<glyph unicode="&#xba;" horiz-adv-x="880" d="M113 1137q0 157 87.5 255.5t237.5 98.5q148 0 238 -93t90 -257q0 -166 -89.5 -264.5t-238.5 -98.5t-237 98t-88 261zM274 1139q0 -106 40.5 -163.5t123.5 -57.5q168 0 168 221q0 104 -43 162.5t-125 58.5q-81 0 -122.5 -61.5t-41.5 -159.5z" />
<glyph unicode="&#xbb;" horiz-adv-x="1052" d="M61 37l277 504l-277 503h213l279 -505l-279 -502h-213zM479 37l279 504l-279 503h215l277 -505l-277 -502h-215z" />
<glyph unicode="&#xbc;" horiz-adv-x="1906" d="M217 1126v140q160 33 201 168h133v-912h-180v658zM408 -182l907 1605h178l-911 -1605h-174zM1018 -6v176q32 34 83 91.5t170 205.5t191 260h168v-588h144v-145h-144v-178h-174v178h-438zM1163 137h293v342q-150 -176 -293 -342z" />
<glyph unicode="&#xbd;" horiz-adv-x="1906" d="M221 1126v140q160 33 201 168h133v-912h-180v658zM322 -182l907 1605h178l-911 -1605h-174zM1073 444q5 59 28.5 112.5t65.5 98t108.5 71t149.5 26.5q146 0 245 -80t102 -213q5 -210 -256 -320q-79 -33 -132 -59q-60 -28 -87 -60t-27 -57h489v-145h-676q0 71 21.5 135 t55.5 109t64.5 74t61.5 48q56 37 187 105q35 19 60 41.5t36.5 39t17 40.5t6 32t0.5 27q0 45 -40.5 91t-125.5 46q-48 0 -83 -14t-54.5 -33.5t-32.5 -50.5t-17 -54t-7 -55z" />
<glyph unicode="&#xbe;" horiz-adv-x="1906" d="M72 768l161 49q10 -68 64 -117t141 -49q85 0 135 37t50 98q0 54 -39 88.5t-111 40.5q-57 5 -104 0v138q67 -3 112 2q129 18 129 123q0 57 -42.5 96t-118.5 39q-89 0 -140 -49t-65 -121l-146 53q25 113 120 185.5t231 72.5q147 0 240.5 -72t94.5 -196q0 -63 -35 -114 t-90 -81q64 -29 104 -83t40 -120q0 -125 -101.5 -202.5t-263.5 -77.5q-142 0 -240.5 74t-125.5 186zM473 -182l907 1605h179l-912 -1605h-174zM1018 -2v168q32 34 83.5 91t170.5 204.5t190 261.5h168v-588h146v-137h-146v-178h-174v178h-438zM1159 133h297v350 q-147 -192 -297 -350z" />
<glyph unicode="&#xbf;" horiz-adv-x="1044" d="M143 791l162 -113q48 172 186 187q12 1 25 1q62 0 95.5 -31.5t33.5 -76.5q0 -35 -22.5 -62t-75.5 -49l-113 -47q-44 -18 -79 -36t-75.5 -47.5t-67 -61.5t-44.5 -78t-18 -98q0 -144 101 -227t257 -83q74 0 144.5 26.5t120 67t84 84t48.5 82.5l-143 150q-9 -28 -31 -62.5 t-53 -68.5t-74.5 -57t-87.5 -23q-69 0 -109 33t-40 86q0 71 106 116q71 30 123 50q39 15 66.5 28t69 40t67.5 56.5t45.5 75.5t19.5 99q0 144 -97 230.5t-247 86.5q-148 0 -245 -82t-132 -196zM385 1219v260h262v-260h-262z" />
<glyph unicode="&#xc0;" horiz-adv-x="1378" d="M57 0l492 1479h295l477 -1479h-293l-98 344h-486l-102 -344h-285zM399 1851h277l112 -266h-176zM520 588h340l-166 583z" />
<glyph unicode="&#xc1;" horiz-adv-x="1378" d="M57 0l492 1479h295l477 -1479h-293l-98 344h-486l-102 -344h-285zM520 588h340l-166 583zM600 1585l131 266h293l-252 -266h-172z" />
<glyph unicode="&#xc2;" horiz-adv-x="1378" d="M57 0l492 1479h295l477 -1479h-293l-98 344h-486l-102 -344h-285zM360 1585l201 264h268l197 -264h-207l-127 141l-125 -141h-207zM520 588h340l-166 583z" />
<glyph unicode="&#xc3;" horiz-adv-x="1378" d="M57 0l492 1479h295l477 -1479h-293l-98 344h-486l-102 -344h-285zM367 1599q36 224 198 224q48 0 135.5 -37t130.5 -37q30 0 53 17t29 49l127 -21q-6 -41 -18.5 -76.5t-34.5 -70t-59 -54.5t-84 -20q-55 0 -141 38t-130 38q-30 0 -51.5 -18.5t-27.5 -51.5zM520 588h340 l-166 583z" />
<glyph unicode="&#xc4;" horiz-adv-x="1378" d="M57 0l492 1479h295l477 -1479h-293l-98 344h-486l-102 -344h-285zM397 1602v219h228v-219h-228zM520 588h340l-166 583zM766 1602v219h225v-219h-225z" />
<glyph unicode="&#xc5;" horiz-adv-x="1378" d="M57 0l492 1479h295l477 -1479h-293l-98 344h-486l-102 -344h-285zM500 1751q0 84 56 139.5t138 55.5q83 0 140 -55.5t57 -139.5t-57 -138t-140 -54t-138.5 54t-55.5 138zM520 588h340l-166 583zM614 1751q0 -36 22 -58t58 -22t59 22t23 58q0 38 -23 60t-59 22t-58 -22 t-22 -60z" />
<glyph unicode="&#xc6;" horiz-adv-x="2091" d="M41 0l553 1479h1378v-244h-950l68 -367h774v-239h-731l69 -375h807v-254h-1053l-55 346h-446l-125 -346h-289zM530 588h328l-104 639z" />
<glyph unicode="&#xc7;" horiz-adv-x="1499" d="M102 735q0 236 83 413t243 274.5t379 97.5q218 0 374 -115t218 -315l-225 -109q-46 138 -146.5 221t-234.5 80q-202 -4 -308 -145.5t-106 -401.5q0 -251 107 -393.5t309 -142.5q144 0 243.5 70t161.5 223l227 -99q-65 -207 -229.5 -320.5t-390.5 -113.5h-10l-11 -41h37 q72 0 119 -38t47 -105q0 -82 -74 -136.5t-186 -54.5q-63 0 -126.5 22.5t-88.5 53.5l76 113q27 -24 70.5 -42t80.5 -18q40 0 65 14t25 37q0 46 -73 46h-123l37 159q-271 41 -420.5 243t-149.5 523z" />
<glyph unicode="&#xc8;" horiz-adv-x="1441" d="M164 0v1479h1159v-244h-885v-367h776v-239h-776v-375h922v-254h-1196zM481 1851h277l112 -266h-176z" />
<glyph unicode="&#xc9;" horiz-adv-x="1441" d="M164 0v1479h1159v-244h-885v-367h776v-239h-776v-375h922v-254h-1196zM639 1585l131 266h293l-252 -266h-172z" />
<glyph unicode="&#xca;" horiz-adv-x="1441" d="M164 0v1479h1159v-244h-885v-367h776v-239h-776v-375h922v-254h-1196zM422 1585l201 264h268l196 -264h-206l-127 141l-125 -141h-207z" />
<glyph unicode="&#xcb;" horiz-adv-x="1441" d="M164 0v1479h1159v-244h-885v-367h776v-239h-776v-375h922v-254h-1196zM451 1602v219h227v-219h-227zM819 1602v219h225v-219h-225z" />
<glyph unicode="&#xcc;" horiz-adv-x="643" d="M31 1851h276l113 -266h-176zM184 0v1479h275v-1479h-275z" />
<glyph unicode="&#xcd;" horiz-adv-x="643" d="M184 0v1479h275v-1479h-275zM219 1585l131 266h293l-252 -266h-172z" />
<glyph unicode="&#xce;" horiz-adv-x="643" d="M-8 1585l201 264h268l196 -264h-206l-127 141l-125 -141h-207zM184 0v1479h275v-1479h-275z" />
<glyph unicode="&#xcf;" horiz-adv-x="643" d="M25 1602v219h227v-219h-227zM184 0v1479h275v-1479h-275zM393 1602v219h225v-219h-225z" />
<glyph unicode="&#xd0;" horiz-adv-x="1558" d="M55 664v157h183v658h575q299 0 471 -185t172 -553q0 -362 -190 -551.5t-523 -189.5h-505v664h-183zM512 246h268q108 0 186 34.5t124.5 100.5t68 155t21.5 205q0 239 -93 369.5t-278 130.5h-297v-420h340v-157h-340v-418z" />
<glyph unicode="&#xd1;" horiz-adv-x="1572" d="M174 0v1479h334l633 -1035v1035h258v-1479h-275l-686 1106v-1106h-264zM459 1599q36 224 198 224q48 0 136 -37t131 -37q30 0 53 17t29 49l127 -21q-6 -41 -18.5 -76.5t-35 -70t-59.5 -54.5t-84 -20q-55 0 -140.5 38t-129.5 38q-30 0 -52 -18.5t-28 -51.5z" />
<glyph unicode="&#xd2;" horiz-adv-x="1605" d="M102 737q0 -356 191 -567t512 -211q149 0 276.5 52.5t221.5 150.5t147 246t53 329q0 233 -88.5 411.5t-246.5 275t-363 96.5t-364.5 -96.5t-249 -275t-89.5 -411.5zM381 737q0 249 110 399t314 150q140 0 236.5 -74.5t140 -195.5t43.5 -279q0 -266 -113 -404t-307 -138 q-107 0 -189 40.5t-133 113.5t-76.5 171t-25.5 217zM512 1851h276l113 -266h-176z" />
<glyph unicode="&#xd3;" horiz-adv-x="1605" d="M102 737q0 -356 191 -567t512 -211q149 0 276.5 52.5t221.5 150.5t147 246t53 329q0 233 -88.5 411.5t-246.5 275t-363 96.5t-364.5 -96.5t-249 -275t-89.5 -411.5zM381 737q0 249 110 399t314 150q140 0 236.5 -74.5t140 -195.5t43.5 -279q0 -266 -113 -404t-307 -138 q-107 0 -189 40.5t-133 113.5t-76.5 171t-25.5 217zM700 1585l131 266h293l-252 -266h-172z" />
<glyph unicode="&#xd4;" horiz-adv-x="1605" d="M102 737q0 -356 191 -567t512 -211q149 0 276.5 52.5t221.5 150.5t147 246t53 329q0 233 -88.5 411.5t-246.5 275t-363 96.5t-364.5 -96.5t-249 -275t-89.5 -411.5zM381 737q0 249 110 399t314 150q140 0 236.5 -74.5t140 -195.5t43.5 -279q0 -266 -113 -404t-307 -138 q-107 0 -189 40.5t-133 113.5t-76.5 171t-25.5 217zM473 1585l201 264h268l197 -264h-207l-127 141l-125 -141h-207z" />
<glyph unicode="&#xd5;" horiz-adv-x="1605" d="M102 737q0 -356 191 -567t512 -211q149 0 276.5 52.5t221.5 150.5t147 246t53 329q0 233 -88.5 411.5t-246.5 275t-363 96.5t-364.5 -96.5t-249 -275t-89.5 -411.5zM381 737q0 249 110 399t314 150q140 0 236.5 -74.5t140 -195.5t43.5 -279q0 -266 -113 -404t-307 -138 q-107 0 -189 40.5t-133 113.5t-76.5 171t-25.5 217zM469 1599q36 224 199 224q48 0 135.5 -37t130.5 -37q30 0 53 17t29 49l127 -21q-6 -41 -18.5 -76.5t-35 -70t-59.5 -54.5t-84 -20q-55 0 -140.5 38t-129.5 38q-30 0 -52 -18.5t-28 -51.5z" />
<glyph unicode="&#xd6;" horiz-adv-x="1605" d="M102 737q0 -356 191 -567t512 -211q149 0 276.5 52.5t221.5 150.5t147 246t53 329q0 233 -88.5 411.5t-246.5 275t-363 96.5t-364.5 -96.5t-249 -275t-89.5 -411.5zM381 737q0 249 110 399t314 150q140 0 236.5 -74.5t140 -195.5t43.5 -279q0 -266 -113 -404t-307 -138 q-107 0 -189 40.5t-133 113.5t-76.5 171t-25.5 217zM506 1602v219h227v-219h-227zM874 1602v219h226v-219h-226z" />
<glyph unicode="&#xd7;" horiz-adv-x="1085" d="M76 287l336 340l-336 338l135 135l336 -342l334 342l135 -135l-336 -338l336 -338l-135 -137l-334 340l-336 -342z" />
<glyph unicode="&#xd8;" horiz-adv-x="1626" d="M113 737q0 352 195.5 567.5t506.5 215.5q261 0 459 -170l117 129l102 -99l-123 -137q143 -221 143 -506q0 -181 -53 -329t-147 -246t-221.5 -150.5t-276.5 -52.5q-273 0 -467 166l-112 -125l-105 100l119 133q-137 207 -137 504zM391 737q0 -170 51 -295l658 721 q-110 119 -285 119q-204 0 -314 -148.5t-110 -396.5zM524 313q105 -114 291 -114q194 0 307 136t113 402q0 169 -55 297z" />
<glyph unicode="&#xd9;" horiz-adv-x="1540" d="M164 518v961h280v-947q0 -147 86 -239t244 -92q157 0 239.5 91.5t82.5 239.5v947h280v-940q0 -280 -162 -430t-452 -150q-122 0 -228.5 35.5t-189.5 103.5t-131.5 176t-48.5 244zM481 1851h277l112 -266h-176z" />
<glyph unicode="&#xda;" horiz-adv-x="1540" d="M164 518v961h280v-947q0 -147 86 -239t244 -92q157 0 239.5 91.5t82.5 239.5v947h280v-940q0 -280 -162 -430t-452 -150q-122 0 -228.5 35.5t-189.5 103.5t-131.5 176t-48.5 244zM680 1585l131 266h293l-252 -266h-172z" />
<glyph unicode="&#xdb;" horiz-adv-x="1540" d="M164 518v961h280v-947q0 -147 86 -239t244 -92q157 0 239.5 91.5t82.5 239.5v947h280v-940q0 -280 -162 -430t-452 -150q-122 0 -228.5 35.5t-189.5 103.5t-131.5 176t-48.5 244zM436 1585l201 264h268l197 -264h-207l-127 141l-125 -141h-207z" />
<glyph unicode="&#xdc;" horiz-adv-x="1540" d="M164 518v961h280v-947q0 -147 86 -239t244 -92q157 0 239.5 91.5t82.5 239.5v947h280v-940q0 -280 -162 -430t-452 -150q-122 0 -228.5 35.5t-189.5 103.5t-131.5 176t-48.5 244zM473 1602v219h227v-219h-227zM842 1602v219h225v-219h-225z" />
<glyph unicode="&#xdd;" horiz-adv-x="1327" d="M20 1479h304l335 -682l345 682h303l-508 -938v-541h-279v539zM578 1585l131 266h292l-251 -266h-172z" />
<glyph unicode="&#xde;" horiz-adv-x="1400" d="M164 0v1479h276v-277h439q218 0 344.5 -118t126.5 -318q0 -210 -127.5 -333.5t-362.5 -123.5h-420v-309h-276zM440 553h396q239 0 239 207q0 93 -57 145.5t-146 52.5h-432v-405z" />
<glyph unicode="&#xdf;" horiz-adv-x="1200" d="M125 0v1036q0 232 134.5 349.5t367.5 117.5q181 0 301.5 -99t120.5 -259q0 -105 -68 -188.5t-164 -116.5q49 -10 102 -41t102 -80t81.5 -123t34.5 -158q4 -211 -110.5 -337t-311.5 -126q-114 0 -202 71.5t-91 182.5l184 27q6 -37 37.5 -59.5t71.5 -22.5q86 0 133.5 65.5 t44.5 180.5q-2 76 -33 138.5t-78.5 101t-107.5 55.5t-121 8v199q115 -12 192.5 50t77.5 156q0 84 -56.5 136.5t-154.5 52.5q-109 0 -183.5 -71.5t-74.5 -180.5v-1065h-229z" />
<glyph unicode="&#xe0;" horiz-adv-x="1165" d="M82 268q0 86 35 152t96 106t126 63t142 34q125 17 271 28v54q0 31 -9 59t-30.5 55t-63.5 43.5t-100 16.5q-56 0 -104.5 -19.5t-77 -46.5t-49.5 -54.5t-29 -46.5l-8 -20l-183 107q58 124 176.5 197t300.5 73q186 0 295 -93t109 -241v-446q0 -46 17.5 -72t42 -29.5 t44.5 -0.5t31 10l-35 -183q-43 -24 -131 -24q-75 0 -121.5 43.5t-60.5 113.5q-146 -163 -369 -163q-62 0 -117 17t-100 50.5t-71.5 89.5t-26.5 127zM285 1452h266l106 -297h-163zM317 297q0 -63 43.5 -92t104.5 -27q22 1 52.5 8.5t69.5 26.5t72.5 46t60 71.5t34.5 97.5v59 q-54 -4 -166 -20q-44 -6 -79 -13.5t-72.5 -20.5t-62.5 -30.5t-41 -44.5t-16 -61z" />
<glyph unicode="&#xe1;" horiz-adv-x="1165" d="M82 268q0 86 35 152t96 106t126 63t142 34q125 17 271 28v54q0 31 -9 59t-30.5 55t-63.5 43.5t-100 16.5q-56 0 -104.5 -19.5t-77 -46.5t-49.5 -54.5t-29 -46.5l-8 -20l-183 107q58 124 176.5 197t300.5 73q186 0 295 -93t109 -241v-446q0 -46 17.5 -72t42 -29.5 t44.5 -0.5t31 10l-35 -183q-43 -24 -131 -24q-75 0 -121.5 43.5t-60.5 113.5q-146 -163 -369 -163q-62 0 -117 17t-100 50.5t-71.5 89.5t-26.5 127zM317 297q0 -63 43.5 -92t104.5 -27q22 1 52.5 8.5t69.5 26.5t72.5 46t60 71.5t34.5 97.5v59q-54 -4 -166 -20 q-44 -6 -79 -13.5t-72.5 -20.5t-62.5 -30.5t-41 -44.5t-16 -61zM440 1155l129 297h279l-246 -297h-162z" />
<glyph unicode="&#xe2;" horiz-adv-x="1165" d="M82 268q0 86 35 152t96 106t126 63t142 34q125 17 271 28v54q0 31 -9 59t-30.5 55t-63.5 43.5t-100 16.5q-56 0 -104.5 -19.5t-77 -46.5t-49.5 -54.5t-29 -46.5l-8 -20l-183 107q58 124 176.5 197t300.5 73q186 0 295 -93t109 -241v-446q0 -46 17.5 -72t42 -29.5 t44.5 -0.5t31 10l-35 -183q-43 -24 -131 -24q-75 0 -121.5 43.5t-60.5 113.5q-146 -163 -369 -163q-62 0 -117 17t-100 50.5t-71.5 89.5t-26.5 127zM236 1155l192 266h248l190 -266h-194l-121 145l-121 -145h-194zM317 297q0 -63 43.5 -92t104.5 -27q22 1 52.5 8.5 t69.5 26.5t72.5 46t60 71.5t34.5 97.5v59q-54 -4 -166 -20q-44 -6 -79 -13.5t-72.5 -20.5t-62.5 -30.5t-41 -44.5t-16 -61z" />
<glyph unicode="&#xe3;" horiz-adv-x="1165" d="M82 268q0 86 35 152t96 106t126 63t142 34q125 17 271 28v54q0 31 -9 59t-30.5 55t-63.5 43.5t-100 16.5q-56 0 -104.5 -19.5t-77 -46.5t-49.5 -54.5t-29 -46.5l-8 -20l-183 107q58 124 176.5 197t300.5 73q186 0 295 -93t109 -241v-446q0 -46 17.5 -72t42 -29.5 t44.5 -0.5t31 10l-35 -183q-43 -24 -131 -24q-75 0 -121.5 43.5t-60.5 113.5q-146 -163 -369 -163q-62 0 -117 17t-100 50.5t-71.5 89.5t-26.5 127zM193 1184q40 233 208 233q51 0 143.5 -41t137.5 -41q31 0 55.5 20t30.5 54l135 -20q-7 -43 -20.5 -81t-36.5 -74.5 t-61.5 -57.5t-88.5 -21q-59 0 -148.5 42t-135.5 42q-31 0 -54.5 -21.5t-29.5 -56.5zM317 297q0 -63 43.5 -92t104.5 -27q22 1 52.5 8.5t69.5 26.5t72.5 46t60 71.5t34.5 97.5v59q-54 -4 -166 -20q-44 -6 -79 -13.5t-72.5 -20.5t-62.5 -30.5t-41 -44.5t-16 -61z" />
<glyph unicode="&#xe4;" horiz-adv-x="1165" d="M82 268q0 86 35 152t96 106t126 63t142 34q125 17 271 28v54q0 31 -9 59t-30.5 55t-63.5 43.5t-100 16.5q-56 0 -104.5 -19.5t-77 -46.5t-49.5 -54.5t-29 -46.5l-8 -20l-183 107q58 124 176.5 197t300.5 73q186 0 295 -93t109 -241v-446q0 -46 17.5 -72t42 -29.5 t44.5 -0.5t31 10l-35 -183q-43 -24 -131 -24q-75 0 -121.5 43.5t-60.5 113.5q-146 -163 -369 -163q-62 0 -117 17t-100 50.5t-71.5 89.5t-26.5 127zM262 1182v221h227v-221h-227zM317 297q0 -63 43.5 -92t104.5 -27q22 1 52.5 8.5t69.5 26.5t72.5 46t60 71.5t34.5 97.5v59 q-54 -4 -166 -20q-44 -6 -79 -13.5t-72.5 -20.5t-62.5 -30.5t-41 -44.5t-16 -61zM618 1182v221h226v-221h-226z" />
<glyph unicode="&#xe5;" horiz-adv-x="1165" d="M82 268q0 86 35 152t96 106t126 63t142 34q125 17 271 28v54q0 31 -9 59t-30.5 55t-63.5 43.5t-100 16.5q-56 0 -104.5 -19.5t-77 -46.5t-49.5 -54.5t-29 -46.5l-8 -20l-183 107q58 124 176.5 197t300.5 73q186 0 295 -93t109 -241v-446q0 -46 17.5 -72t42 -29.5 t44.5 -0.5t31 10l-35 -183q-43 -24 -131 -24q-75 0 -121.5 43.5t-60.5 113.5q-146 -163 -369 -163q-62 0 -117 17t-100 50.5t-71.5 89.5t-26.5 127zM317 297q0 -63 43.5 -92t104.5 -27q22 1 52.5 8.5t69.5 26.5t72.5 46t60 71.5t34.5 97.5v59q-54 -4 -166 -20 q-44 -6 -79 -13.5t-72.5 -20.5t-62.5 -30.5t-41 -44.5t-16 -61zM350 1329q0 86 57.5 142.5t141.5 56.5t142.5 -57t58.5 -142t-58.5 -140.5t-142.5 -55.5t-141.5 55.5t-57.5 140.5zM465 1329q0 -37 23.5 -60.5t60.5 -23.5t61.5 23.5t24.5 60.5q0 38 -24.5 62t-61.5 24 t-60.5 -24t-23.5 -62z" />
<glyph unicode="&#xe6;" horiz-adv-x="1779" d="M84 270q-1 72 23 129.5t62 95t92 65t106.5 42t113.5 23.5q132 18 275 28v52q0 31 -9 58.5t-30.5 54.5t-63.5 43t-100 16q-41 0 -78 -10t-63.5 -26.5t-49 -36.5t-36.5 -39.5t-24.5 -36t-14.5 -26.5l-4 -10l-183 107q58 124 177.5 197t300.5 73q99 0 183 -34t138 -89 q136 123 330 123q219 0 344 -148t125 -384l-2 -54l-62 -2h-655q-3 -132 69 -218.5t189 -86.5q97 0 169 56t97 149l199 -72q-47 -156 -171.5 -245t-295.5 -89q-122 0 -223 55.5t-170 155.5q-25 -34 -61.5 -65.5t-90 -64t-129.5 -52.5t-162 -20q-83 0 -152 29.5t-115.5 96 t-47.5 160.5zM322 299q0 -64 43.5 -92.5t103.5 -26.5q22 1 52.5 8.5t69.5 26.5t72.5 46t60 71.5t34.5 97.5v59q-88 -8 -168 -20q-45 -7 -78 -14t-71 -20.5t-62.5 -30.5t-40.5 -44t-16 -61zM989 659h465q-3 97 -68 159.5t-163 62.5q-99 0 -164 -64.5t-70 -157.5z" />
<glyph unicode="&#xe7;" horiz-adv-x="1071" d="M82 522q0 154 62.5 279t177 196.5t260.5 71.5q163 0 278 -88.5t160 -243.5l-197 -82q-24 99 -85 157t-154 58q-122 0 -194.5 -95t-72.5 -253q0 -159 74 -251.5t201 -92.5q176 0 248 178l178 -100q-54 -129 -164.5 -203t-257.5 -78l-14 -57h36q72 0 119 -38t47 -105 q0 -82 -74 -136.5t-186 -54.5q-63 0 -126.5 22.5t-88.5 53.5l76 113q27 -24 71 -42t81 -18q40 0 65 14t25 37q0 46 -74 46h-123l41 176q-180 33 -284.5 175t-104.5 361z" />
<glyph unicode="&#xe8;" horiz-adv-x="1124" d="M82 528q0 238 131.5 389.5t361.5 151.5q217 0 344.5 -151t127.5 -386l-3 -51l-73 -4h-649q-3 -131 70.5 -216t191.5 -85q97 0 170 56.5t98 148.5l199 -72q-47 -156 -171.5 -245t-295.5 -89q-217 0 -359.5 148t-142.5 405zM285 1452h266l106 -297h-163zM332 662h465 q-3 96 -68 157.5t-160 61.5q-101 0 -166 -62t-71 -157z" />
<glyph unicode="&#xe9;" horiz-adv-x="1124" d="M82 528q0 238 131.5 389.5t361.5 151.5q217 0 344.5 -151t127.5 -386l-3 -51l-73 -4h-649q-3 -131 70.5 -216t191.5 -85q97 0 170 56.5t98 148.5l199 -72q-47 -156 -171.5 -245t-295.5 -89q-217 0 -359.5 148t-142.5 405zM332 662h465q-3 96 -68 157.5t-160 61.5 q-101 0 -166 -62t-71 -157zM471 1155l129 297h279l-246 -297h-162z" />
<glyph unicode="&#xea;" horiz-adv-x="1124" d="M82 528q0 238 131.5 389.5t361.5 151.5q217 0 344.5 -151t127.5 -386l-3 -51l-73 -4h-649q-3 -131 70.5 -216t191.5 -85q97 0 170 56.5t98 148.5l199 -72q-47 -156 -171.5 -245t-295.5 -89q-217 0 -359.5 148t-142.5 405zM260 1155l193 266h247l191 -266h-195l-121 145 l-120 -145h-195zM332 662h465q-3 96 -68 157.5t-160 61.5q-101 0 -166 -62t-71 -157z" />
<glyph unicode="&#xeb;" horiz-adv-x="1124" d="M82 528q0 238 131.5 389.5t361.5 151.5q217 0 344.5 -151t127.5 -386l-3 -51l-73 -4h-649q-3 -131 70.5 -216t191.5 -85q97 0 170 56.5t98 148.5l199 -72q-47 -156 -171.5 -245t-295.5 -89q-217 0 -359.5 148t-142.5 405zM283 1182v221h227v-221h-227zM332 662h465 q-3 96 -68 157.5t-160 61.5q-101 0 -166 -62t-71 -157zM639 1182v221h225v-221h-225z" />
<glyph unicode="&#xec;" horiz-adv-x="507" d="M-23 1452h267l106 -297h-164zM135 0v1044h238v-1044h-238z" />
<glyph unicode="&#xed;" horiz-adv-x="507" d="M135 0v1044h238v-1044h-238zM143 1155l129 297h279l-246 -297h-162z" />
<glyph unicode="&#xee;" horiz-adv-x="507" d="M-61 1155l192 266h248l190 -266h-194l-121 145l-121 -145h-194zM135 0v1044h238v-1044h-238z" />
<glyph unicode="&#xef;" horiz-adv-x="507" d="M-35 1182v221h228v-221h-228zM135 0v1044h238v-1044h-238zM322 1182v221h225v-221h-225z" />
<glyph unicode="&#xf0;" horiz-adv-x="1187" d="M88 528q0 165 61.5 289t163 186.5t226.5 61.5q64 -1 122 -21t100 -52t72 -67t48 -71q-13 87 -71.5 187.5t-147.5 172.5l-261 -108l-41 98l183 76q-116 64 -277 61l101 181q103 -9 206 -48.5t189 -99.5l254 107l41 -97l-205 -88q110 -120 171.5 -276.5t61.5 -335.5 q0 -177 -40 -317t-111 -228t-164.5 -134t-204.5 -46q-212 0 -344.5 152t-132.5 417zM322 520q0 -163 70.5 -259.5t197.5 -96.5q108 0 179 100t71 258q0 159 -75 253.5t-190 94.5q-121 0 -187 -99t-66 -251z" />
<glyph unicode="&#xf1;" horiz-adv-x="1146" d="M123 0h242v573q2 62 15 111.5t33.5 80t44 52t51 31.5t48.5 14t43 4q84 0 138.5 -47.5t54.5 -150.5v-668h241v688q0 87 -21.5 154.5t-56.5 109.5t-83.5 69t-98.5 37.5t-106 10.5q-96 0 -183 -55t-125 -127l-20 157h-217v-1044zM223 1184q40 233 209 233q51 0 143.5 -41 t137.5 -41q31 0 55.5 20t30.5 54l135 -20q-7 -43 -20.5 -81t-36.5 -74.5t-61.5 -57.5t-88.5 -21q-59 0 -149 42t-136 42q-31 0 -54.5 -21.5t-29.5 -56.5z" />
<glyph unicode="&#xf2;" horiz-adv-x="1167" d="M82 524q0 -251 133.5 -400t366.5 -149q225 0 364 150t139 405q0 250 -140.5 394.5t-362.5 144.5q-151 0 -265.5 -71.5t-174.5 -194.5t-60 -279zM289 1452h266l107 -297h-164zM322 528q0 150 67 249.5t193 99.5q124 0 194 -95t70 -254q0 -164 -68 -259t-196 -95t-194 95.5 t-66 258.5z" />
<glyph unicode="&#xf3;" horiz-adv-x="1167" d="M82 524q0 -251 133.5 -400t366.5 -149q225 0 364 150t139 405q0 250 -140.5 394.5t-362.5 144.5q-151 0 -265.5 -71.5t-174.5 -194.5t-60 -279zM322 528q0 150 67 249.5t193 99.5q124 0 194 -95t70 -254q0 -164 -68 -259t-196 -95t-194 95.5t-66 258.5zM492 1155l129 297 h278l-246 -297h-161z" />
<glyph unicode="&#xf4;" horiz-adv-x="1167" d="M82 524q0 156 60 279t174.5 194.5t265.5 71.5q222 0 362.5 -144.5t140.5 -394.5q0 -255 -139 -405t-364 -150q-233 0 -366.5 149t-133.5 400zM266 1155l193 266h248l190 -266h-195l-120 145l-121 -145h-195zM322 528q0 -163 66 -258.5t194 -95.5t196 95t68 259 q0 159 -70 254t-194 95q-126 0 -193 -99.5t-67 -249.5z" />
<glyph unicode="&#xf5;" horiz-adv-x="1167" d="M82 524q0 -251 133.5 -400t366.5 -149q225 0 364 150t139 405q0 250 -140.5 394.5t-362.5 144.5q-151 0 -265.5 -71.5t-174.5 -194.5t-60 -279zM233 1184q40 233 209 233q51 0 143.5 -41t137.5 -41q31 0 55.5 20t30.5 54l135 -20q-7 -43 -20.5 -81t-36.5 -74.5 t-61.5 -57.5t-88.5 -21q-59 0 -148.5 42t-135.5 42q-31 0 -54.5 -21.5t-29.5 -56.5zM322 528q0 150 67 249.5t193 99.5q124 0 194 -95t70 -254q0 -164 -68 -259t-196 -95t-194 95.5t-66 258.5z" />
<glyph unicode="&#xf6;" horiz-adv-x="1167" d="M82 524q0 -251 133.5 -400t366.5 -149q225 0 364 150t139 405q0 250 -140.5 394.5t-362.5 144.5q-151 0 -265.5 -71.5t-174.5 -194.5t-60 -279zM293 1182v221h227v-221h-227zM322 528q0 150 67 249.5t193 99.5q124 0 194 -95t70 -254q0 -164 -68 -259t-196 -95t-194 95.5 t-66 258.5zM649 1182v221h225v-221h-225z" />
<glyph unicode="&#xf7;" horiz-adv-x="1085" d="M76 453v190h930v-190h-930zM412 0v281h262v-281h-262zM412 815v279h262v-279h-262z" />
<glyph unicode="&#xf8;" horiz-adv-x="1232" d="M86 23l123 141q-96 146 -96 360q0 241 134.5 393t364.5 152q173 0 308 -94l122 141l105 -92l-131 -152q100 -148 100 -342q0 -256 -138 -405.5t-366 -149.5q-81 0 -163.5 26t-141.5 65l-121 -136zM352 528q0 -100 23 -170l397 455q-68 61 -160 61q-126 0 -193 -98 t-67 -248zM457 231q63 -53 155 -53q128 0 196.5 93.5t68.5 256.5q0 88 -25 158z" />
<glyph unicode="&#xf9;" horiz-adv-x="1157" d="M123 377v667h242v-651q0 -104 55.5 -156.5t138.5 -52.5q29 0 55.5 5t59.5 23.5t57 48.5t42 86t20 130v567h241v-1044h-217l-20 160q-38 -72 -124 -128t-184 -57q-70 -1 -133 20.5t-116.5 67t-85 126t-31.5 188.5zM305 1452h266l107 -297h-164z" />
<glyph unicode="&#xfa;" horiz-adv-x="1157" d="M123 377v667h242v-651q0 -104 55.5 -156.5t138.5 -52.5q29 0 55.5 5t59.5 23.5t57 48.5t42 86t20 130v567h241v-1044h-217l-20 160q-38 -72 -124 -128t-184 -57q-70 -1 -133 20.5t-116.5 67t-85 126t-31.5 188.5zM471 1155l129 297h279l-246 -297h-162z" />
<glyph unicode="&#xfb;" horiz-adv-x="1157" d="M123 377v667h242v-651q0 -104 55.5 -156.5t138.5 -52.5q29 0 55.5 5t59.5 23.5t57 48.5t42 86t20 130v567h241v-1044h-217l-20 160q-38 -72 -124 -128t-184 -57q-70 -1 -133 20.5t-116.5 67t-85 126t-31.5 188.5zM262 1155l193 266h247l191 -266h-195l-120 145l-121 -145 h-195z" />
<glyph unicode="&#xfc;" horiz-adv-x="1157" d="M123 377v667h242v-651q0 -104 55.5 -156.5t138.5 -52.5q29 0 55.5 5t59.5 23.5t57 48.5t42 86t20 130v567h241v-1044h-217l-20 160q-38 -72 -124 -128t-184 -57q-70 -1 -133 20.5t-116.5 67t-85 126t-31.5 188.5zM287 1182v221h227v-221h-227zM643 1182v221h225v-221 h-225z" />
<glyph unicode="&#xfd;" horiz-adv-x="985" d="M10 1044l365 -1001l-31 -90q-40 -111 -121 -111q-45 0 -94 29l-88 -174q71 -64 205 -64q125 0 198.5 68t120.5 195q60 158 162.5 445t174.5 495l73 208h-242l-233 -722l-240 722h-250zM399 1155l129 297h279l-246 -297h-162z" />
<glyph unicode="&#xfe;" horiz-adv-x="1177" d="M123 -367v1846h237v-568q40 69 122.5 113.5t183.5 44.5q190 0 315 -149.5t125 -397.5q0 -250 -124 -398.5t-327 -148.5q-103 0 -179.5 41.5t-117.5 106.5v-490h-235zM362 477q2 -71 22 -126t48.5 -86.5t64.5 -52t64.5 -27.5t54.5 -7q117 0 184.5 90t67.5 254 q0 156 -69.5 247t-188.5 91q-26 0 -54 -6.5t-63 -26t-62.5 -50.5t-47 -86.5t-21.5 -127.5v-86z" />
<glyph unicode="&#xff;" horiz-adv-x="985" d="M10 1044l365 -1001l-31 -90q-40 -111 -121 -111q-45 0 -94 29l-88 -174q71 -64 205 -64q125 0 198.5 68t120.5 195q60 158 162.5 445t174.5 495l73 208h-242l-233 -722l-240 722h-250zM205 1182v221h227v-221h-227zM561 1182v221h225v-221h-225z" />
<glyph unicode="&#x152;" horiz-adv-x="2097" d="M102 739q0 144 46 267t125.5 210t185.5 148t226 89t247 26h1046v-244h-815v-367h707v-239h-707v-375h852v-254h-1128q-124 1 -239 31.5t-214.5 92t-173.5 148t-116 206.5t-42 261zM375 739q0 -238 140.5 -366.5t371.5 -128.5v1003q-109 0 -201.5 -32t-162 -93.5 t-109 -159.5t-39.5 -223z" />
<glyph unicode="&#x153;" horiz-adv-x="1882" d="M82 524q0 241 135.5 393t364.5 152q117 0 215.5 -43.5t165.5 -122.5q136 166 368 166q218 0 345.5 -150.5t127.5 -386.5l-2 -53l-63 -2h-660q-3 -131 70.5 -215t191.5 -84q97 0 169.5 55.5t97.5 147.5l200 -72q-50 -156 -174 -245t-295 -89q-112 0 -210.5 46t-163.5 126 q-139 -172 -383 -172q-235 0 -367.5 147.5t-132.5 401.5zM324 528q0 -162 65.5 -256t192.5 -94q129 0 197.5 93.5t68.5 256.5q0 159 -70 251.5t-196 92.5q-125 0 -191.5 -97.5t-66.5 -246.5zM1090 662h462q-3 96 -67.5 157.5t-159.5 61.5q-101 0 -165 -61.5t-70 -157.5z" />
<glyph unicode="&#x178;" horiz-adv-x="1327" d="M20 1479h304l335 -682l345 682h303l-508 -938v-541h-279v539zM362 1602v219h228v-219h-228zM731 1602v219h225v-219h-225z" />
<glyph unicode="&#x2c6;" horiz-adv-x="815" d="M92 1155l193 266h247l191 -266h-195l-120 145l-121 -145h-195z" />
<glyph unicode="&#x2dc;" horiz-adv-x="815" d="M49 1184q40 233 209 233q51 0 143.5 -41t137.5 -41q31 0 55.5 20t30.5 54l135 -20q-7 -43 -20.5 -81t-36.5 -74.5t-61.5 -57.5t-88.5 -21q-59 0 -149 42t-136 42q-31 0 -54.5 -21.5t-29.5 -56.5z" />
<glyph unicode="&#x2000;" horiz-adv-x="973" />
<glyph unicode="&#x2001;" horiz-adv-x="1946" />
<glyph unicode="&#x2002;" horiz-adv-x="973" />
<glyph unicode="&#x2003;" horiz-adv-x="1946" />
<glyph unicode="&#x2004;" horiz-adv-x="648" />
<glyph unicode="&#x2005;" horiz-adv-x="486" />
<glyph unicode="&#x2006;" horiz-adv-x="324" />
<glyph unicode="&#x2007;" horiz-adv-x="324" />
<glyph unicode="&#x2008;" horiz-adv-x="243" />
<glyph unicode="&#x2009;" horiz-adv-x="389" />
<glyph unicode="&#x200a;" horiz-adv-x="108" />
<glyph unicode="&#x2010;" horiz-adv-x="737" d="M51 524l37 213h600l-37 -213h-600z" />
<glyph unicode="&#x2011;" horiz-adv-x="737" d="M51 524l37 213h600l-37 -213h-600z" />
<glyph unicode="&#x2012;" horiz-adv-x="737" d="M51 524l37 213h600l-37 -213h-600z" />
<glyph unicode="&#x2013;" horiz-adv-x="1118" d="M61 524v199h996v-199h-996z" />
<glyph unicode="&#x2014;" horiz-adv-x="1988" d="M0 524v199h1989v-199h-1989z" />
<glyph unicode="&#x2018;" horiz-adv-x="477" d="M102 956v226q0 81 27.5 146t72 104t93.5 61.5t100 28.5v-119q-66 -8 -112.5 -50t-46.5 -114l131 -51v-232h-265z" />
<glyph unicode="&#x2019;" horiz-adv-x="475" d="M82 913v119q64 8 111 49.5t47 112.5l-131 51v234h264v-228q0 -80 -27.5 -144.5t-72 -103.5t-93 -61.5t-98.5 -28.5z" />
<glyph unicode="&#x201a;" horiz-adv-x="454" d="M82 -164q64 8 111 50.5t47 113.5l-131 49v234h264v-228q0 -80 -27.5 -145t-72 -104t-93 -62t-98.5 -29v121z" />
<glyph unicode="&#x201c;" horiz-adv-x="806" d="M82 958v226q0 65 18 120.5t47 93t67 65t77 42t78 19.5v-117q-64 -8 -111 -51t-47 -115l125 -51v-232h-254zM436 958v226q0 81 27 146t71 104t92.5 61.5t98.5 28.5v-117q-64 -8 -111 -51t-47 -115l129 -51v-232h-260z" />
<glyph unicode="&#x201d;" horiz-adv-x="806" d="M82 913v117q64 8 111 50.5t47 113.5l-129 51v234h258v-228q0 -80 -26.5 -144.5t-70.5 -103.5t-92 -61.5t-98 -28.5zM436 913v117q65 8 112.5 50.5t47.5 113.5l-125 51v234h254v-228q0 -80 -27 -144.5t-70.5 -103.5t-92 -61.5t-99.5 -28.5z" />
<glyph unicode="&#x201e;" horiz-adv-x="806" d="M82 -166q64 8 111 51.5t47 114.5l-129 49v234h258v-228q0 -80 -26.5 -145t-70.5 -104t-92 -62t-98 -29v119zM436 -166q65 8 112.5 51.5t47.5 114.5l-125 49v234h254v-228q0 -80 -27 -145t-70.5 -104t-92 -62t-99.5 -29v119z" />
<glyph unicode="&#x2022;" horiz-adv-x="847" d="M158 518q0 109 75.5 185.5t184.5 76.5t185.5 -76.5t76.5 -185.5t-76.5 -184.5t-185.5 -75.5t-184.5 75.5t-75.5 184.5z" />
<glyph unicode="&#x2026;" horiz-adv-x="1908" d="M164 0v281h264v-281h-264zM825 0v281h260v-281h-260zM1483 0v281h262v-281h-262z" />
<glyph unicode="&#x202f;" horiz-adv-x="389" />
<glyph unicode="&#x2039;" horiz-adv-x="714" d="M102 539l324 505h227l-327 -505l327 -502h-227z" />
<glyph unicode="&#x203a;" horiz-adv-x="714" d="M61 37l326 502l-326 505h226l325 -505l-325 -502h-226z" />
<glyph unicode="&#x205f;" horiz-adv-x="486" />
<glyph unicode="&#x20ac;" horiz-adv-x="1310" d="M53 522v135h121q-2 27 -2 91l2 86h-78v135h97q48 260 197 405.5t384 145.5q180 0 308 -104t188 -286l-207 -94q-100 250 -295 250q-249 0 -317 -317h440v-135h-461q-2 -33 -2 -89l2 -88h412v-135h-393q72 -327 321 -327q109 0 182 59.5t121 181.5l211 -100 q-66 -179 -202 -278t-320 -99q-234 0 -381.5 148t-192.5 415h-135z" />
<glyph unicode="&#x2122;" horiz-adv-x="2134" d="M61 1300v179h811v-179h-305v-778h-200v778h-306zM975 522h186v717l234 -717h145l244 717v-717h186v957h-284l-209 -643h-9l-213 643h-280v-957z" />
<glyph unicode="&#xe000;" horiz-adv-x="1044" d="M0 0v1044h1044v-1044h-1044z" />
</font>
</defs>
</svg>
