<?xml version="1.0" standalone="no"?>
<!DOCTYPE svg PUBLIC "-//W3C//DTD SVG 1.1//EN" "http://www.w3.org/Graphics/SVG/1.1/DTD/svg11.dtd" >
<svg xmlns="http://www.w3.org/2000/svg">
<metadata></metadata>
<defs>
<font id="f_groteskbook_italic" horiz-adv-x="1249" >
<font-face units-per-em="2048" ascent="1573" descent="-475" />
<missing-glyph horiz-adv-x="430" />
<glyph unicode="&#xfb01;" horiz-adv-x="1101" d="M115 0l196 883h-194l35 157h198l39 154q40 162 135.5 240.5t259.5 78.5q125 0 208.5 -68t107.5 -179l-189 -58q-3 67 -37.5 110.5t-99.5 43.5q-151 0 -194 -166l-41 -156h213l-35 -157h-215l-199 -883h-188zM641 0l236 1040h186l-236 -1040h-186z" />
<glyph unicode="&#xfb02;" horiz-adv-x="1081" d="M113 0l196 883h-192l35 157h194l37 150q40 165 137 243t268 78q41 0 96.5 -10t90.5 -22h188l-332 -1479h-192l274 1206q0 73 -33 117.5t-96 44.5q-83 0 -138.5 -47.5t-74.5 -130.5l-34 -150h206l-36 -157h-207l-197 -883h-190z" />
<glyph unicode="&#xfb03;" horiz-adv-x="1626" d="M117 0l196 883h-196l35 157h198l39 148q43 167 139 246t263 79q66 0 135.5 -27t107.5 -67q101 94 277 94q125 0 208 -67.5t107 -179.5l-188 -58q-3 67 -38 110.5t-100 43.5q-151 0 -194 -166l-41 -156h207l-37 -157h-207l-199 -883h-188l197 883h-336l-199 -883h-186z M539 1040h338l45 177q0 65 -40.5 107t-101.5 42q-157 0 -202 -176zM1167 0l236 1040h186l-235 -1040h-187z" />
<glyph unicode="&#xfb04;" horiz-adv-x="1607" d="M117 0l196 883h-196l35 157h198l39 148q43 168 137.5 245.5t261.5 77.5q69 0 133.5 -27.5t106.5 -66.5q101 94 287 94q96 0 186 -32h189l-332 -1479h-193l275 1206q0 73 -33 117.5t-96 44.5q-83 0 -138.5 -47.5t-74.5 -130.5l-35 -150h209l-39 -157h-207l-197 -883h-190 l199 883h-336l-199 -883h-186zM539 1040h333l46 181q0 61 -38 102t-100 41q-157 0 -202 -174z" />
<glyph horiz-adv-x="2048" />
<glyph horiz-adv-x="2048" />
<glyph unicode="&#xd;" horiz-adv-x="2048" />
<glyph unicode=" "  horiz-adv-x="430" />
<glyph unicode="&#x09;" horiz-adv-x="430" />
<glyph unicode="&#xa0;" horiz-adv-x="430" />
<glyph unicode="!" horiz-adv-x="614" d="M102 0l52 229h215l-52 -229h-215zM270 455l52 440l122 584h211l-135 -586l-178 -438h-72z" />
<glyph unicode="&#x22;" horiz-adv-x="653" d="M236 1067l88 412h172l-97 -412h-163zM530 1067l88 412h173l-97 -412h-164z" />
<glyph unicode="#" horiz-adv-x="1284" d="M20 354l31 138h221l195 452h-205l31 137h231l152 353h149l-153 -353h377l151 353h152l-154 -353h188l-30 -137h-217l-193 -452h201l-33 -138h-229l-150 -354h-149l149 354h-377l-147 -354h-152l152 354h-191zM420 492h375l194 452h-375z" />
<glyph unicode="$" horiz-adv-x="1239" d="M61 385l195 70q1 -26 4 -50t11 -57t25 -61t41 -54t63 -44.5t89 -24.5l119 518l-35 14q-129 58 -215 150t-86 209q0 137 73 243t192 161.5t264 58.5l37 163h118l-36 -163q131 -26 229 -112.5t139 -205.5l-174 -113q-18 74 -78.5 144.5t-158.5 95.5l-113 -483q25 -9 45 -15 q136 -38 230 -132t94 -222q0 -139 -76.5 -253.5t-205.5 -181t-286 -75.5l-45 -198h-121l47 198q-150 21 -262.5 137.5t-122.5 282.5zM483 1092q0 -133 172 -205l101 442q-119 -4 -196 -75.5t-77 -161.5zM610 164q131 13 219.5 94t88.5 184q0 62 -43 119t-148 82z" />
<glyph unicode="%" horiz-adv-x="1449" d="M164 1008q0 65 15.5 130t47 124t75.5 104.5t106 72.5t133 27q109 0 173 -67t64 -178q0 -81 -26 -161.5t-72.5 -146.5t-119.5 -107.5t-159 -41.5q-109 0 -173 69.5t-64 174.5zM236 0l952 1434h160l-951 -1434h-161zM309 1024q0 -139 113 -139q54 0 96.5 35t65.5 88t35 106 t12 98q0 138 -113 138q-51 0 -92.5 -35t-66 -87.5t-37.5 -106t-13 -97.5zM815 217q0 65 15.5 130t47.5 124.5t76 105t105.5 72.5t132.5 27q109 0 173.5 -67.5t64.5 -178.5q0 -81 -26 -161.5t-72.5 -146.5t-119.5 -107.5t-159 -41.5q-109 0 -173.5 69.5t-64.5 174.5zM961 233 q0 -139 112 -139q54 0 96.5 35.5t65.5 88.5t35 106t12 98q0 137 -113 137q-51 0 -92.5 -35t-65.5 -87.5t-37 -106t-13 -97.5z" />
<glyph unicode="&#x26;" horiz-adv-x="1353" d="M51 317q0 82 32 157.5t79.5 131.5t118 108.5t133.5 87.5t139 70q-29 120 -29 195q0 92 26 173t75.5 144t128.5 99.5t178 36.5q108 0 173.5 -71.5t65.5 -168.5q0 -78 -37.5 -152.5t-100.5 -135t-131.5 -107t-145.5 -84.5q11 -60 47 -177t76 -218q211 224 325 483l119 -131 q-61 -115 -162 -252t-219 -248q31 -61 75.5 -90t112.5 -29q12 0 24.5 3t32.5 10t23 8l-57 -150q-64 -33 -139 -33q-135 0 -223 154q-204 -156 -400 -156q-159 0 -249.5 91.5t-90.5 250.5zM238 340q0 -93 51.5 -144t142.5 -51q68 0 148 34.5t149 92.5q-83 208 -141 447 q-173 -81 -261.5 -171.5t-88.5 -207.5zM702 1130q0 -59 23 -180q237 128 268 252q15 72 -13 117t-95 45q-88 0 -135.5 -74t-47.5 -160z" />
<glyph unicode="'" horiz-adv-x="366" d="M236 1065l88 414h176l-111 -414h-153z" />
<glyph unicode="(" horiz-adv-x="686" d="M164 524q0 176 52.5 346.5t148 315t240 258.5t319.5 176l26 -98q-151 -62 -271.5 -174t-196.5 -251t-116 -293.5t-40 -311.5q0 -95 19 -179t46.5 -140.5t64.5 -103t67.5 -71.5t60.5 -41l-45 -94q-64 28 -127 83.5t-120 137t-92.5 197t-35.5 243.5z" />
<glyph unicode=")" horiz-adv-x="686" d="M-131 -43q151 62 271.5 174t197 251t116.5 293.5t40 311.5q0 95 -19 179t-46.5 140.5t-64.5 103t-67.5 71.5t-60.5 41l45 94q50 -22 100.5 -61t100 -99t88 -133t62 -169t23.5 -200q0 -237 -89 -454.5t-263 -388t-407 -252.5z" />
<glyph unicode="*" horiz-adv-x="921" d="M211 1008v176l375 -90zM319 805l269 282l-111 -378zM322 1391l155 90l111 -381zM596 1087l268 -282l-157 -96zM596 1100l111 381l155 -90zM598 1094l375 90v-176z" />
<glyph unicode="+" horiz-adv-x="1085" d="M133 553v160h369v383h168v-383h368v-160h-368v-385h-168v385h-369z" />
<glyph unicode="," horiz-adv-x="532" d="M-51 -291l24 101q161 25 209 190l-119 82l48 190h245l-55 -223q-75 -304 -352 -340z" />
<glyph unicode="-" horiz-adv-x="737" d="M106 551l68 172h563l-71 -172h-560z" />
<glyph unicode="." horiz-adv-x="540" d="M61 0l60 264h235l-57 -264h-238z" />
<glyph unicode="/" horiz-adv-x="782" d="M41 -215l608 1735h154l-608 -1735h-154z" />
<glyph unicode="0" d="M121 440q0 89 13.5 185t43 196t72 193t104 175.5t135 144t169 97t202.5 35.5q180 0 286.5 -131t106.5 -352q0 -113 -18.5 -229t-55.5 -232t-98.5 -217t-140.5 -179.5t-189 -123.5t-237 -45q-191 0 -292 125.5t-101 357.5zM307 453q0 -151 61 -236.5t183 -85.5 q85 0 160.5 40.5t130 109t98 154.5t70 180.5t40 184t13.5 167.5q0 154 -61 240.5t-183 86.5q-86 0 -162.5 -42t-131 -112t-97.5 -157.5t-68.5 -182.5t-39 -183t-13.5 -164z" />
<glyph unicode="1" horiz-adv-x="839" d="M233 1040l35 146q126 21 225 84t158 164h137l-327 -1434h-203l258 1116z" />
<glyph unicode="2" d="M23 0q72 346 436 551q161 90 307 164q58 30 101 59.5t84 71.5t63 97.5t22 121.5q0 99 -67.5 161t-171.5 62q-78 0 -142.5 -22t-106.5 -54.5t-76 -81t-52.5 -89t-34.5 -91.5l-188 51q23 72 57.5 136.5t88.5 125.5t120.5 105.5t158 71t195.5 26.5q181 0 300.5 -110.5 t119.5 -274.5q0 -128 -54.5 -229.5t-148 -174t-237.5 -138.5q-161 -75 -267 -133q-119 -65 -173 -118.5t-64 -107.5h772l-39 -180h-1003z" />
<glyph unicode="3" d="M20 360l195 60q-5 -121 81.5 -202t231.5 -81q174 0 283 78t109 215q0 88 -59 143.5t-165 67.5q-40 4 -71 4q-59 0 -86 -2l43 172q50 -4 73 -4q55 0 95 6q126 21 214.5 89.5t88.5 176.5q0 91 -61.5 150t-188.5 59q-274 0 -393 -264l-181 72q82 170 236 268t360 98 q116 0 213.5 -46.5t155 -129.5t57.5 -184q0 -133 -88.5 -230.5t-238.5 -154.5q91 -29 147.5 -104t56.5 -166q0 -217 -174.5 -354.5t-445.5 -137.5q-207 0 -347.5 119t-140.5 282z" />
<glyph unicode="4" d="M51 311l51 224q19 18 53 50.5t136 133t199.5 201t226.5 240t235 263.5h199l-213 -936h244l-37 -176h-248l-68 -311h-200l67 311h-645zM264 489h475l158 650q-34 -39 -92.5 -104.5t-225.5 -237.5t-315 -308z" />
<glyph unicode="5" d="M66 297l182 61q23 -96 94.5 -159.5t194.5 -63.5q111 0 211 50.5t163.5 144.5t63.5 209q0 107 -66 174t-184 67q-98 0 -201 -50.5t-174 -135.5l-153 35l290 796h811l-43 -178h-655l-172 -446q145 141 350 141q186 0 292 -103.5t106 -271.5q0 -172 -93.5 -313t-248 -218 t-334.5 -77t-299 98t-135 240z" />
<glyph unicode="6" d="M137 418q0 149 31.5 296t99.5 283t163 240t233 166.5t299 62.5q132 0 236.5 -65.5t146.5 -179.5l-146 -113q-39 90 -114 139t-171 49q-97 0 -183.5 -38.5t-147.5 -99.5t-108.5 -139t-74 -153.5t-36.5 -146.5q71 96 195 165.5t269 69.5q163 0 273 -104t110 -270 q0 -132 -52 -249t-139.5 -198t-203.5 -127.5t-242 -46.5q-109 0 -194 36t-137.5 99.5t-79.5 145.5t-27 178zM340 391q0 -112 71.5 -182t192.5 -70q113 0 207 57.5t145.5 150t51.5 196.5q0 110 -68.5 174.5t-191.5 64.5q-168 0 -288 -114.5t-120 -276.5z" />
<glyph unicode="7" d="M283 0q31 137 100 290t156.5 290t189 265.5t197 228t180.5 167.5h-821l43 182h1018l-33 -143q-131 -115 -256 -259.5t-236.5 -310.5t-192 -351.5t-110.5 -358.5h-235z" />
<glyph unicode="8" d="M55 330q0 145 99 259t256 165q-70 46 -113 115t-43 139q0 87 31.5 161.5t86.5 128.5t128.5 92t159.5 57t178 19q183 0 302.5 -100.5t119.5 -249.5q0 -133 -87 -235t-219 -140q86 -38 143.5 -118.5t57.5 -163.5q0 -158 -89 -273.5t-232.5 -171t-321.5 -55.5 q-124 0 -226.5 41.5t-166.5 127.5t-64 202zM256 352q0 -93 76.5 -156t206.5 -63q113 0 204.5 33t150 103.5t58.5 168.5q0 97 -79.5 158t-217.5 61q-73 0 -143 -20t-127.5 -57t-93 -96.5t-35.5 -131.5zM446 1024q0 -88 68.5 -145.5t190.5 -57.5q93 0 173 30t133.5 94 t53.5 151q0 90 -67.5 145t-186.5 55q-150 0 -257.5 -72.5t-107.5 -199.5z" />
<glyph unicode="9" d="M6 209l148 121q27 -97 104.5 -148t161.5 -51q90 0 174 35.5t147.5 93t115 132t84 152t48.5 152.5q-72 -101 -192 -163t-267 -62q-157 0 -266.5 108.5t-109.5 270.5q0 170 85.5 312.5t228 223t306.5 80.5q139 0 239.5 -66t148.5 -172.5t48 -240.5q0 -124 -26 -248.5 t-74 -238.5t-121 -213t-162.5 -172t-203 -114.5t-238.5 -41.5q-126 0 -234 72t-145 178zM346 885q0 -112 66 -182t186 -70q110 0 205.5 57t151 149t55.5 193q0 118 -69.5 188t-188.5 70q-111 0 -205.5 -57t-147.5 -150t-53 -198z" />
<glyph unicode=":" horiz-adv-x="550" d="M61 0l62 264h235l-59 -264h-238zM233 776l62 264h235l-59 -264h-238z" />
<glyph unicode=";" horiz-adv-x="540" d="M-51 -291l24 101q161 25 209 190l-119 82l48 190h245l-55 -223q-75 -304 -352 -340zM223 776l60 264h237l-59 -264h-238z" />
<glyph unicode="&#x3c;" horiz-adv-x="1064" d="M76 492v145l907 401v-168l-733 -305l733 -305v-168z" />
<glyph unicode="=" horiz-adv-x="1064" d="M102 352v150h908v-150h-908zM102 762v147h908v-147h-908z" />
<glyph unicode="&#x3e;" horiz-adv-x="1064" d="M123 92v168l735 305l-735 305v168l907 -401v-145z" />
<glyph unicode="?" horiz-adv-x="962" d="M211 686q0 54 18 101t47 81.5t72.5 65.5t85.5 52.5t96 43.5l138 53q81 32 122 67.5t41 100.5q0 58 -40 91.5t-111 33.5q-44 0 -91 -21.5t-89 -56t-74 -68.5t-59 -69l-86 142q31 37 70 71t93 69t122 56t139 21q118 0 202 -68.5t84 -185.5q0 -60 -21.5 -110.5t-52 -84.5 t-81 -66t-90.5 -50.5t-99 -41.5l-129 -51q-71 -29 -109 -65t-38 -97q0 -47 35 -78.5t98 -31.5q64 0 131 38t106.5 77.5t71.5 82.5l96 -110q-76 -103 -184.5 -168.5t-245.5 -65.5q-117 0 -192.5 69t-75.5 173zM260 0l51 229h215l-51 -229h-215z" />
<glyph unicode="@" horiz-adv-x="1691" d="M131 455q0 155 41.5 306.5t120.5 280.5t185 228t244 155t288 56q121 0 222 -38t176 -112t117 -189.5t42 -262.5q0 -121 -40.5 -253.5t-108 -244t-167.5 -184t-207 -72.5q-62 0 -96.5 44t-23.5 126q-55 -72 -124.5 -120t-137.5 -48q-105 0 -165.5 81.5t-60.5 221.5 q0 117 39.5 239t104.5 220t157.5 160.5t190.5 62.5q70 0 122.5 -44t65.5 -126l115 145h76l-248 -755q-9 -28 2.5 -48t38.5 -20q53 0 112 59.5t106 150t78 205t31 216.5q0 213 -104 336t-319 123q-105 0 -210 -39.5t-199 -117.5t-166.5 -184.5t-115.5 -251t-43 -306.5 q0 -268 128 -410.5t376 -142.5q139 0 280.5 55t240 128.5t165.5 154.5l94 -107q-132 -153 -344 -258.5t-436 -105.5q-144 0 -261.5 43.5t-203 127.5t-132 215.5t-46.5 299.5zM600 442q0 -168 111 -168q53 0 110 52t99 131l120 364q-1 69 -34.5 113.5t-77.5 44.5 q-85 0 -162.5 -88.5t-121.5 -212.5t-44 -236z" />
<glyph unicode="A" horiz-adv-x="1234" d="M-82 0l821 1479h265l118 -1479h-207l-22 362h-551l-197 -362h-227zM442 549h441l-43 733z" />
<glyph unicode="B" horiz-adv-x="1402" d="M82 0l350 1479h600q184 0 293 -93.5t109 -230.5q0 -144 -92 -259.5t-250 -154.5q92 -17 154.5 -94t62.5 -168q0 -107 -47 -197.5t-128 -151.5t-190 -95.5t-231 -34.5h-631zM344 197h404q89 0 164.5 29.5t125 94t49.5 152.5q0 81 -63 131.5t-180 50.5h-393zM496 840h389 q147 0 244.5 72.5t97.5 199.5q0 86 -59 132t-158 46h-408z" />
<glyph unicode="C" horiz-adv-x="1425" d="M154 475q0 211 65.5 402.5t179 333t276.5 225.5t349 84q197 0 319 -109.5t134 -286.5l-189 -86q-16 297 -303 297q-128 0 -245 -70t-199.5 -184t-131.5 -263.5t-49 -305.5q0 -173 80.5 -272t237.5 -99q297 0 491 318l174 -92q-119 -192 -300.5 -301t-393.5 -109 q-228 0 -361.5 142.5t-133.5 375.5z" />
<glyph unicode="D" horiz-adv-x="1488" d="M82 0l346 1479h506q230 0 377 -144t147 -372q0 -204 -64 -381.5t-177 -306t-277.5 -202t-357.5 -73.5h-500zM342 197h301q110 0 208 44t169 118t123 168.5t78 197t26 201.5q0 177 -84 270.5t-252 93.5h-313z" />
<glyph unicode="E" horiz-adv-x="1347" d="M82 0l348 1479h1040l-45 -193h-825l-106 -448h702l-45 -183h-702l-103 -456h864l-51 -199h-1077z" />
<glyph unicode="F" horiz-adv-x="1239" d="M82 0l350 1479h1012l-51 -195h-791l-108 -463h606l-45 -190h-611l-145 -631h-217z" />
<glyph unicode="G" horiz-adv-x="1550" d="M154 475q0 214 71 408t191 333.5t284 221.5t344 82q188 0 318 -98t168 -257l-189 -100q-37 270 -337 270q-107 0 -207.5 -46t-180 -126t-139.5 -183t-92.5 -223.5t-32.5 -240.5q0 -176 89.5 -277.5t260.5 -101.5q146 0 284.5 93t201.5 245l29 127h-406l39 180h618 l-186 -782h-86l-10 236q-104 -141 -247.5 -209t-295.5 -68q-215 0 -352 144.5t-137 371.5z" />
<glyph unicode="H" horiz-adv-x="1478" d="M82 0l350 1479h213l-141 -607h680l139 607h217l-350 -1479h-213l158 674h-680l-158 -674h-215z" />
<glyph unicode="I" horiz-adv-x="593" d="M82 0l354 1479h209l-350 -1479h-213z" />
<glyph unicode="J" horiz-adv-x="1024" d="M20 217q0 108 35 215l211 78q-51 -151 -51 -236q0 -64 35 -99.5t96 -35.5q97 0 164.5 58.5t91.5 156.5l272 1125h211l-266 -1121q-46 -196 -174 -297.5t-328 -101.5q-128 0 -212.5 72t-84.5 186z" />
<glyph unicode="K" horiz-adv-x="1333" d="M82 0l346 1479h207l-189 -791l803 791h258l-661 -654l371 -825h-228l-301 700l-297 -276l-102 -424h-207z" />
<glyph unicode="L" horiz-adv-x="1175" d="M82 0l348 1479h215l-301 -1278h760l-47 -201h-975z" />
<glyph unicode="M" horiz-adv-x="1804" d="M82 0l350 1479h324l116 -1135l644 1135h350l-348 -1479h-203l307 1290l-750 -1290h-145l-141 1288l-303 -1288h-201z" />
<glyph unicode="N" horiz-adv-x="1497" d="M82 0l344 1479h270l385 -1207l279 1207h199l-351 -1479h-233l-404 1266l-286 -1266h-203z" />
<glyph unicode="O" horiz-adv-x="1574" d="M154 494q0 153 40 302.5t117.5 279.5t182.5 229.5t245 157t295 57.5q235 0 376.5 -146t141.5 -389q0 -209 -68 -398.5t-184 -327t-278 -219t-342 -81.5q-249 0 -387.5 147.5t-138.5 387.5zM362 516q0 -171 92.5 -273t260.5 -102q122 0 238 66.5t202 177t138.5 262.5 t52.5 314q0 178 -88 279t-257 101q-109 0 -210 -47t-177.5 -128t-134 -185.5t-87.5 -224.5t-30 -240z" />
<glyph unicode="P" horiz-adv-x="1314" d="M82 0l350 1479h598q166 0 276.5 -102t110.5 -251q0 -162 -82 -280t-219.5 -176t-312.5 -58h-361l-139 -612h-221zM492 803h356q154 0 252 79t98 220q0 83 -57.5 134.5t-143.5 51.5h-391z" />
<glyph unicode="Q" horiz-adv-x="1576" d="M154 494q0 153 40.5 302.5t119 279.5t184.5 229.5t246.5 157t295.5 57.5q234 0 375 -145.5t141 -389.5q0 -301 -143 -551.5t-375 -382.5q-6 -26 -6 -49q0 -48 26 -86q37 -55 118 -55q87 0 161 43l35 -113q-122 -100 -266 -100q-94 0 -143.5 56t-49.5 151q0 44 15 108 q-133 -47 -252 -47q-249 0 -385.5 147t-136.5 388zM360 516q0 -170 94 -272.5t263 -102.5q122 0 237.5 66.5t200.5 177t136.5 262.5t51.5 314q0 178 -88 279t-258 101q-136 0 -257 -72.5t-203 -189t-129.5 -264.5t-47.5 -299z" />
<glyph unicode="R" horiz-adv-x="1472" d="M82 0l350 1479h655q169 0 277.5 -98.5t108.5 -250.5q0 -89 -34.5 -164t-92.5 -125.5t-127.5 -83t-147.5 -46.5q90 -22 143.5 -90.5t53.5 -167.5q0 -57 -18.5 -173t-18.5 -180q0 -58 10 -100h-231q-4 18 -4 70q0 57 24.5 174t24.5 176q0 100 -57 155.5t-158 55.5h-394 l-147 -631h-217zM492 815h409q150 0 255.5 78.5t105.5 212.5q0 86 -52.5 135t-146.5 49h-459z" />
<glyph unicode="S" horiz-adv-x="1329" d="M31 373l207 71q39 -292 380 -292q183 0 286.5 82.5t103.5 193.5q0 76 -42.5 118.5t-129.5 67.5q-156 44 -273 82q-128 41 -223.5 133.5t-95.5 210.5q0 149 82.5 259.5t220 165.5t309.5 55q190 0 322 -89t192 -221l-178 -116q-104 247 -363 247q-162 0 -265 -76t-103 -192 q0 -66 48.5 -115.5t158.5 -83.5q151 -47 272 -77q129 -31 212 -122.5t83 -211.5q0 -153 -89 -269t-236.5 -175.5t-327.5 -59.5q-67 0 -135.5 13.5t-138 45t-125.5 77.5t-97 118t-55 160z" />
<glyph unicode="T" horiz-adv-x="1134" d="M205 1292l41 187h1114l-39 -187h-438l-303 -1292h-220l306 1292h-461z" />
<glyph unicode="U" horiz-adv-x="1492" d="M174 381q0 67 14 133l226 965h217l-225 -955q-17 -74 -17 -110q0 -123 71.5 -193.5t205.5 -70.5q180 0 292.5 100t151.5 266l225 963h221l-225 -944q-67 -279 -243.5 -427.5t-450.5 -148.5q-212 0 -337.5 116t-125.5 306z" />
<glyph unicode="V" horiz-adv-x="1208" d="M246 1479h215l71 -1241l666 1241h236l-826 -1479h-246z" />
<glyph unicode="W" horiz-adv-x="1931" d="M266 1479h215l17 -1200l569 1200h270l17 -1196l565 1196h227l-743 -1479h-223l-21 1247l-608 -1247h-225z" />
<glyph unicode="X" horiz-adv-x="1208" d="M-82 0l631 762l-242 717h236l159 -533l439 533h252l-600 -725l282 -754h-239l-197 573l-467 -573h-254z" />
<glyph unicode="Y" horiz-adv-x="1144" d="M225 1479h221l170 -752l529 752h246l-695 -938l-129 -541h-217l127 541z" />
<glyph unicode="Z" horiz-adv-x="1200" d="M-72 0l45 193l1096 1093l-813 -4l51 193l1067 4l-45 -199l-1096 -1081l865 4l-45 -199z" />
<glyph unicode="[" horiz-adv-x="737" d="M0 -379l479 2079h488l-37 -162h-318l-405 -1757h317l-37 -160h-487z" />
<glyph unicode="\" horiz-adv-x="808" d="M184 1520h154l491 -1735h-153z" />
<glyph unicode="]" horiz-adv-x="737" d="M-199 -379l37 162h318l405 1757h-317l37 160h487l-479 -2079h-488z" />
<glyph unicode="^" horiz-adv-x="1064" d="M188 858l355 621h184l354 -621h-186l-260 483l-264 -483h-183z" />
<glyph unicode="_" horiz-adv-x="972" d="M-129 -201l37 150h964l-32 -150h-969z" />
<glyph unicode="`" horiz-adv-x="757" d="M326 1444h219l84 -293h-127z" />
<glyph unicode="a" horiz-adv-x="1169" d="M61 350q0 107 25.5 211t75.5 194.5t118 160t159.5 109.5t193.5 40q94 0 169 -52t118 -147l81 174h148l-244 -1040h-149v170q-169 -195 -365 -195q-154 0 -242 103t-88 272zM242 406q0 -271 217 -271q119 0 224.5 99.5t145.5 250.5q25 92 25 158q0 119 -57 192.5 t-162 73.5q-88 0 -164.5 -48.5t-125 -123.5t-76 -162t-27.5 -169z" />
<glyph unicode="b" horiz-adv-x="1173" d="M41 0l332 1479h192l-143 -615q142 198 364 201h5q139 1 229 -101q92 -104 92 -272q0 -104 -26.5 -208t-78 -195t-121 -161.5t-162.5 -111.5t-196 -41q-90 0 -162 58t-100 151l-73 -184h-152zM334 387q0 -113 58 -178q58 -66 151 -66q73 0 136 33.5t106.5 87t75 121.5 t46.5 136.5t15 131.5q0 113 -56 182.5t-157 69.5q-111 0 -204 -91.5t-138 -238.5q-33 -90 -33 -188z" />
<glyph unicode="c" horiz-adv-x="1030" d="M61 356q0 105 26 206.5t78 192.5t124.5 160t173 109.5t215.5 40.5q145 0 236 -83.5t106 -221.5l-158 -68q-8 101 -59.5 158t-149.5 57q-117 0 -213 -74t-148 -191t-52 -247q0 -258 227 -258q88 0 168 53t141 136l131 -90q-85 -125 -204 -193t-263 -68q-171 0 -275 103 t-104 278z" />
<glyph unicode="d" horiz-adv-x="1165" d="M61 336q0 98 23.5 200t71.5 196.5t113.5 169t158 119t197.5 44.5q101 0 170 -55.5t104 -147.5l145 617h183l-334 -1479h-148l5 184q-61 -96 -159 -152.5t-200 -56.5q-150 0 -240 100t-90 261zM244 381q0 -113 56 -178.5t155 -65.5q50 0 100 19t99.5 57.5t91 108 t65.5 161.5q27 104 27 172t-22.5 119.5t-58 77.5t-71 38.5t-68.5 12.5q-87 0 -160 -49.5t-118.5 -127.5t-70.5 -168t-25 -177z" />
<glyph unicode="e" horiz-adv-x="1073" d="M66 360q0 103 24 203.5t74.5 191.5t121 160t170 109.5t214.5 40.5q162 0 259 -100t97 -265q0 -77 -35 -192l-90 -8h-643q-18 -64 -18 -117q0 -118 57.5 -183t169.5 -65q101 0 191 60.5t141 162.5l153 -71q-85 -147 -219.5 -229.5t-294.5 -82.5q-169 0 -270.5 103.5 t-101.5 281.5zM297 641h539q12 39 12 86q0 88 -55.5 139.5t-151.5 51.5q-114 0 -209 -77.5t-135 -199.5z" />
<glyph unicode="f" horiz-adv-x="657" d="M113 0l198 883h-194l33 157h198l41 185q18 81 52 139.5t78 89.5t89 45t94 14q102 0 181 -49l-92 -141q-45 25 -82 25q-109 0 -136 -123l-38 -185h206l-36 -157h-205l-201 -883h-186z" />
<glyph unicode="g" horiz-adv-x="1210" d="M-61 -150h194q5 -71 59 -114t148 -43q173 0 285 102.5t157 288.5l23 90q-69 -83 -166 -141t-211 -58q-156 0 -258 107t-102 276q0 107 25.5 210t76.5 192.5t121.5 158t166 107.5t204.5 39q198 0 294 -203l88 178h146l-217 -921q-31 -134 -86.5 -240.5t-136 -185 t-191.5 -120.5t-246 -42q-156 0 -263.5 91t-110.5 228zM248 408q0 -128 57.5 -199.5t173.5 -71.5q55 0 114 22.5t113.5 64.5t98.5 109t65 148q23 106 23 158q0 115 -68.5 190.5t-177.5 75.5q-71 0 -135.5 -31t-111.5 -82.5t-82 -116.5t-52.5 -134t-17.5 -133z" />
<glyph unicode="h" horiz-adv-x="1159" d="M41 0l332 1479h190l-143 -619q59 81 162 143t213 62q132 0 207 -79.5t75 -205.5q0 -39 -10 -94l-149 -686h-193l152 666q10 45 10 77q0 83 -45.5 125.5t-132.5 42.5q-29 0 -62.5 -7.5t-78 -30t-83 -57.5t-73.5 -98t-52 -143l-131 -575h-188z" />
<glyph unicode="i" horiz-adv-x="483" d="M37 0l235 1040h187l-238 -1040h-184zM303 1235l49 209h199l-45 -209h-203z" />
<glyph unicode="j" horiz-adv-x="503" d="M-184 -350l28 151q25 -10 60 -10q109 0 133 105l260 1144h184l-264 -1165q-27 -120 -110 -185t-195 -65q-55 0 -96 25zM326 1235l49 209h203l-46 -209h-206z" />
<glyph unicode="k" horiz-adv-x="1046" d="M41 0l334 1479h186l-221 -975l545 536h233l-446 -426l264 -614h-203l-205 494l-233 -213l-66 -281h-188z" />
<glyph unicode="l" horiz-adv-x="477" d="M43 0l334 1479h184l-334 -1479h-184z" />
<glyph unicode="m" horiz-adv-x="1822" d="M41 0l231 1040h148v-196q77 106 161 163.5t205 57.5q104 0 172.5 -57.5t83.5 -161.5q74 98 184 158.5t232 60.5q130 0 206.5 -74t76.5 -196q0 -51 -12 -113l-152 -682h-188l145 647q12 62 12 86q0 80 -42.5 128t-131.5 48q-34 0 -68 -7.5t-75 -30.5t-75.5 -59 t-66.5 -98.5t-51 -144.5l-129 -569h-188l147 639q11 57 11 84q0 85 -43 135.5t-132 50.5q-32 0 -69.5 -11t-79.5 -36.5t-79 -63t-68.5 -96t-47.5 -129.5l-131 -573h-186z" />
<glyph unicode="n" horiz-adv-x="1163" d="M41 0l233 1040h150v-198q72 97 172.5 160t202.5 63q133 0 207.5 -79.5t74.5 -207.5q0 -51 -10 -92l-156 -686h-190l152 664q8 36 8 73q0 81 -42.5 125.5t-123.5 44.5q-27 0 -62 -10t-79 -35t-84 -61.5t-76 -94.5t-56 -128l-133 -578h-188z" />
<glyph unicode="o" horiz-adv-x="1114" d="M59 358q0 142 43 270t119.5 225t192.5 154.5t254 57.5q167 0 274 -106.5t107 -278.5q0 -197 -81.5 -359t-221.5 -254t-308 -92t-273.5 107t-105.5 276zM248 387q0 -119 55.5 -186.5t165.5 -67.5q84 0 158 44.5t124.5 117.5t79.5 167t29 193q0 120 -58 189t-167 69 q-92 0 -168.5 -50.5t-122.5 -129.5t-71 -169t-25 -177z" />
<glyph unicode="p" horiz-adv-x="1189" d="M-41 -367l315 1407h158v-180q70 99 165 152t191 53q152 0 246 -100t94 -263q0 -81 -16.5 -165.5t-48.5 -166t-82.5 -153t-113 -125.5t-146 -85.5t-176.5 -31.5q-100 0 -175.5 60t-99.5 153l-127 -555h-184zM332 381q0 -118 62.5 -182t150.5 -64q93 0 171.5 49.5 t127 127.5t75.5 168t27 177q0 119 -57.5 185.5t-171.5 66.5q-30 0 -64 -8.5t-78.5 -33t-83.5 -62.5t-76.5 -103t-60.5 -147q-22 -88 -22 -174z" />
<glyph unicode="q" horiz-adv-x="1150" d="M61 336q0 104 23 207.5t70.5 197.5t113.5 166.5t158.5 115t198.5 42.5q90 0 163.5 -57t110.5 -152l78 184h153l-315 -1407h-182l119 529q-155 -187 -361 -187q-139 0 -234.5 105.5t-95.5 255.5zM246 379q0 -117 56.5 -180.5t154.5 -63.5q122 0 220.5 93t137.5 235 q29 98 29 186q0 72 -21.5 126t-56 81.5t-68.5 40t-67 12.5q-88 0 -163 -50.5t-122.5 -129t-73.5 -170.5t-26 -180z" />
<glyph unicode="r" horiz-adv-x="720" d="M41 0l233 1040h142l2 -192q62 93 147.5 155t179.5 62q41 0 73 -21.5t46 -54.5l-129 -160q-11 28 -34.5 47t-53.5 19q-81 0 -158.5 -80t-134.5 -264l-127 -551h-186z" />
<glyph unicode="s" horiz-adv-x="954" d="M-10 215l141 96q14 -30 36.5 -58t57 -56.5t84.5 -46t107 -17.5q121 0 194.5 47.5t73.5 122.5q0 42 -31 74t-92 45q-124 27 -205 55q-44 15 -81.5 36t-70.5 51t-52 71.5t-19 89.5q0 146 125 243t317 97q122 0 223 -57.5t154 -135.5l-137 -122q-33 61 -104 111t-158 50 q-113 0 -176.5 -45t-63.5 -116q0 -81 133 -119q122 -35 201 -53q95 -22 156 -84.5t61 -157.5q0 -81 -41 -150.5t-108 -114.5t-151 -70.5t-171 -25.5q-140 0 -257.5 70t-145.5 170z" />
<glyph unicode="t" horiz-adv-x="688" d="M123 883l37 157h192l49 213l222 174l-88 -387h215l-37 -157h-211l-135 -607q-5 -23 -5 -42q0 -46 30 -73q29 -26 75 -26q22 0 47 6q36 10 47 15l-51 -146q-77 -35 -139 -35q-98 0 -152.5 57t-54.5 146q0 20 8 66l141 639h-190z" />
<glyph unicode="u" horiz-adv-x="1144" d="M82 260q0 52 10 98l162 682h190l-157 -659q-11 -46 -11 -72q0 -83 43.5 -127.5t129.5 -44.5q43 0 94.5 21.5t103 60.5t94 104t60.5 142l135 575h188l-235 -1040h-148v203q-63 -101 -166 -164.5t-206 -63.5q-132 0 -209.5 79.5t-77.5 205.5z" />
<glyph unicode="v" horiz-adv-x="940" d="M143 1040h187l63 -823l449 823h200l-591 -1040h-195z" />
<glyph unicode="w" horiz-adv-x="1513" d="M143 1040h183l36 -819l398 819h225l27 -819l391 819h192l-530 -1040h-203l-20 866l-422 -866h-201z" />
<glyph unicode="x" horiz-adv-x="899" d="M-92 0l454 553l-190 487h193l124 -340l271 340h211l-414 -501l221 -539h-200l-148 387l-311 -387h-211z" />
<glyph unicode="y" horiz-adv-x="970" d="M-133 -330l96 137q35 -28 88 -28q99 0 172 129l66 117l-135 1015h186l86 -817l436 817h201q-455 -816 -678 -1192q-67 -113 -151 -172t-201 -59q-93 0 -166 53z" />
<glyph unicode="z" horiz-adv-x="897" d="M-61 0l30 141l721 744l-547 -4l39 155l776 4l-34 -141l-727 -735l579 4l-39 -164z" />
<glyph unicode="{" horiz-adv-x="696" d="M160 602l47 209q36 -7 73.5 -0.5t69 21.5t53.5 50.5t27 86.5q5 53 5.5 161.5t6.5 161.5q19 149 143 237t314 93l14 -104q-126 -6 -199.5 -74t-86.5 -160q-6 -39 -15.5 -160t-23.5 -188q-21 -96 -98 -163t-162 -73q65 -12 111 -55t46 -110q0 -58 -22 -124t-48.5 -115.5 t-48.5 -114.5t-22 -122q0 -66 50 -110t147 -51l-43 -103q-154 6 -243 71t-89 171q0 59 24 125t52.5 115.5t52.5 112t24 114.5q0 45 -23 70.5t-58.5 29.5t-77.5 -2z" />
<glyph unicode="|" horiz-adv-x="747" d="M113 -385l430 1864h153l-434 -1864h-149z" />
<glyph unicode="}" horiz-adv-x="696" d="M-94 -100q126 6 200 73.5t87 159.5q6 40 15 161t23 187q21 96 98.5 163t162.5 73q-65 12 -111.5 55.5t-46.5 110.5q0 58 22 123.5t48.5 115.5t48.5 114.5t22 121.5q0 66 -49.5 110.5t-146.5 51.5l43 102q154 -6 242.5 -71t88.5 -171q0 -59 -24 -125t-52.5 -115.5 t-52.5 -112t-24 -114.5q0 -45 23 -70.5t58.5 -29.5t77.5 2l-47 -209q-36 7 -73.5 0.5t-69 -21t-53.5 -50t-27 -86.5q-5 -53 -5.5 -162t-6.5 -162q-19 -149 -143 -237t-314 -93z" />
<glyph unicode="~" horiz-adv-x="1193" d="M106 608l9 146q123 129 305 129q46 0 97.5 -17t78 -31t86.5 -49q54 -31 88 -48t83 -32.5t91 -15.5q135 0 260 107l-8 -152q-118 -127 -309 -127q-42 0 -90.5 15.5t-82 32t-85.5 46.5q-56 32 -88.5 48.5t-82 32.5t-91.5 16q-139 0 -261 -101z" />
<glyph unicode="&#xa1;" horiz-adv-x="614" d="M102 0l136 586l176 438h71l-49 -440l-123 -584h-211zM389 1249l51 230h215l-51 -230h-215z" />
<glyph unicode="&#xa2;" horiz-adv-x="1228" d="M158 367q0 105 26.5 206t79.5 190t127 156.5t176 106.5t219 39l74 188h119l-80 -211q95 -39 153 -112t68 -170l-153 -62q-6 58 -41.5 111.5t-87.5 77.5l-287 -754q196 19 315 186l131 -83q-85 -125 -204 -193t-263 -68h-41l-77 -206h-119l90 233q-106 48 -165.5 143 t-59.5 222zM330 395q0 -160 112 -235l283 745q-115 -10 -207.5 -91t-140 -193t-47.5 -226z" />
<glyph unicode="&#xa3;" d="M-86 129q0 124 84 190t205 66q85 0 207 -72q73 106 73 232h-256l29 110h227q0 42 -22 125q-43 169 -43 226q0 155 75.5 273.5t201.5 179.5t280 61q173 0 263 -99t93 -256l-188 -75q-1 56 -11 97.5t-33 77.5t-67 55t-108 19q-133 0 -218 -86t-85 -231q0 -74 22 -195 q19 -108 19 -172h473l-21 -110h-455q-7 -151 -110 -293q88 -63 144 -90t110 -27q74 0 134 41t81 113h158q-34 -154 -143 -242t-267 -88q-85 0 -159.5 41.5t-162.5 118.5q-157 -160 -350 -160q-81 0 -130.5 51t-49.5 119zM31 152q0 -38 28 -60t68 -22q52 0 100.5 27 t110.5 102q-93 75 -172 75q-59 0 -97 -34t-38 -88z" />
<glyph unicode="&#xa4;" horiz-adv-x="1290" d="M164 317l108 109q-86 125 -86 268q0 144 86 269l-108 108l106 107l109 -109q120 84 268 84q146 0 266 -86l109 111l106 -107l-110 -110q86 -118 86 -267q0 -148 -86 -266l110 -111l-106 -106l-109 111q-120 -86 -266 -86q-150 0 -268 83l-109 -108zM350 694 q0 -130 84.5 -215.5t210.5 -85.5t210.5 85.5t84.5 215.5t-84.5 215.5t-210.5 85.5t-210.5 -85.5t-84.5 -215.5z" />
<glyph unicode="&#xa5;" horiz-adv-x="1216" d="M94 227l27 111h350l39 192h-348l26 111h342l-215 838h222l137 -668l442 668h244l-600 -838h364l-24 -111h-365l-41 -192h359l-27 -111h-360l-50 -227h-223l51 227h-350z" />
<glyph unicode="&#xa6;" horiz-adv-x="733" d="M352 -387v793h176v-793h-176zM352 684v795h176v-795h-176z" />
<glyph unicode="&#xa7;" horiz-adv-x="1153" d="M-10 -158l164 103q21 -86 101 -144.5t167 -58.5q106 0 181 48.5t75 139.5q0 66 -50 122t-173 122q-172 92 -237.5 168t-65.5 190q0 65 30.5 121.5t83.5 99t112 73t128 53.5q-164 139 -164 274q0 118 62.5 206t167.5 132.5t237 44.5q149 0 254 -69t135 -177l-166 -92 q-26 85 -93 136.5t-153 51.5q-106 0 -177.5 -48t-71.5 -146q0 -67 51 -125.5t172 -124.5q177 -96 245 -167.5t68 -182.5q0 -70 -28.5 -127t-82.5 -98.5t-117 -71.5t-147 -57q81 -51 128.5 -126.5t47.5 -144.5q0 -175 -135.5 -276t-347.5 -101q-149 0 -257 70.5t-144 181.5z M338 580q0 -128 168 -222l98 -55q275 71 275 234q0 75 -46 126t-126 95l-103 55q-37 -10 -67 -20t-69.5 -30.5t-65.5 -43.5t-45 -59.5t-19 -79.5z" />
<glyph unicode="&#xa8;" horiz-adv-x="1024" d="M391 1171l47 199h187l-47 -199h-187zM721 1171l47 199h184l-47 -199h-184z" />
<glyph unicode="&#xa9;" horiz-adv-x="1675" d="M115 737q0 171 59 318t160.5 248.5t240.5 159t295 57.5t294.5 -57.5t240.5 -159t161.5 -248.5t59.5 -318q0 -170 -59.5 -316.5t-161.5 -247t-240.5 -157.5t-294.5 -57t-295 57t-240.5 157.5t-160.5 247t-59 316.5zM233 737q0 -192 84.5 -343.5t229.5 -233.5t323 -82 t322.5 82t228.5 233t84 344q0 145 -49 270t-134 211.5t-202 135.5t-250 49t-250.5 -49t-202.5 -135.5t-134.5 -211.5t-49.5 -270zM457 739q0 223 116.5 357.5t309.5 134.5q127 0 221.5 -69.5t134.5 -188.5l-131 -72q-30 90 -88 140.5t-139 50.5q-130 0 -198.5 -88 t-68.5 -265q0 -162 72 -253t195 -91q169 0 241 189l135 -72q-47 -117 -149.5 -187.5t-228.5 -70.5q-189 0 -305.5 132.5t-116.5 352.5z" />
<glyph unicode="&#xaa;" horiz-adv-x="819" d="M231 1047q0 116 45.5 218t133 167t196.5 65q101 0 164 -123l47 105h101l-148 -658h-100l-2 111q-44 -61 -101.5 -95t-115.5 -34q-104 0 -162 68.5t-58 175.5zM362 1085q0 -163 125 -163q66 0 129 63t86 158q13 56 13 84q0 153 -119 153q-69 0 -124.5 -50t-82.5 -116.5 t-27 -128.5z" />
<glyph unicode="&#xab;" horiz-adv-x="1044" d="M113 543l379 497h170l-396 -518l168 -473h-155zM543 543l379 497h170l-396 -518l168 -473h-155z" />
<glyph unicode="&#xac;" horiz-adv-x="1064" d="M78 750v159h907v-557h-172v398h-735z" />
<glyph unicode="&#xad;" horiz-adv-x="737" d="M106 551l68 172h563l-71 -172h-560z" />
<glyph unicode="&#xae;" horiz-adv-x="1675" d="M115 737q0 171 59 318t160.5 248.5t240.5 159t295 57.5t294.5 -57.5t240.5 -159t161.5 -248.5t59.5 -318q0 -170 -59.5 -316.5t-161.5 -247t-240.5 -157.5t-294.5 -57t-295 57t-240.5 157.5t-160.5 247t-59 316.5zM233 737q0 -192 84.5 -343.5t229.5 -233.5t323 -82 t322.5 82t228.5 233t84 344q0 145 -49 270t-134 211.5t-202 135.5t-250 49t-250.5 -49t-202.5 -135.5t-134.5 -211.5t-49.5 -270zM555 299v915h375q138 0 218.5 -68.5t80.5 -189.5q0 -87 -61 -143.5t-152 -75.5q73 -8 127 -63.5t55 -147.5q3 -151 43 -227h-158 q-26 40 -34 217q-3 76 -49 120t-123 44h-179v-381h-143zM698 807h215q80 0 125 38.5t45 108.5q0 65 -40 100.5t-103 35.5h-242v-283z" />
<glyph unicode="&#xaf;" horiz-adv-x="870" d="M270 1180l35 149h567l-34 -149h-568z" />
<glyph unicode="&#xb0;" horiz-adv-x="663" d="M252 1227q0 106 73 179t177 73q105 0 177.5 -72.5t72.5 -177.5q0 -106 -73 -179t-177 -73q-105 0 -177.5 72.5t-72.5 177.5zM354 1227q0 -63 42.5 -106.5t105.5 -43.5t105 44.5t42 107.5t-42 106t-105 43t-105.5 -44t-42.5 -107z" />
<glyph unicode="&#xb1;" horiz-adv-x="1064" d="M80 0v160h905v-160h-905zM80 762v160h369v383h167v-383h369v-160h-369v-385h-167v385h-369z" />
<glyph unicode="&#xb2;" horiz-adv-x="901" d="M121 522q21 111 111 208t169 138q189 97 209 107q176 86 176 217q0 55 -41 95t-110 40q-55 0 -97.5 -18.5t-69.5 -53t-42 -64t-29 -71.5l-141 45q41 121 142.5 204t250.5 83q119 0 200 -70t81 -184q0 -66 -24.5 -123.5t-67.5 -100.5t-93 -74t-110 -56q-47 -18 -170 -76 q-122 -57 -158 -121h500l-31 -125h-655z" />
<glyph unicode="&#xb3;" horiz-adv-x="901" d="M141 748l142 43q3 -72 48 -117t130 -45q103 0 171 49t68 131q0 45 -38 78.5t-103 40.5q-40 5 -88 2l27 117q48 -6 90 -3q80 11 134 55.5t54 117.5q0 52 -39 85t-110 33q-85 0 -145 -50.5t-95 -123.5l-123 49q50 109 148 174.5t235 65.5q119 0 195 -62.5t76 -158.5 q0 -165 -177 -242q44 -18 75.5 -70t31.5 -100q0 -143 -115 -227t-291 -84q-123 0 -206.5 70t-94.5 172z" />
<glyph unicode="&#xb4;" horiz-adv-x="757" d="M412 1151l200 293h250l-313 -293h-137z" />
<glyph unicode="&#xb6;" horiz-adv-x="999" d="M94 1059q0 175 119.5 297.5t288.5 122.5h518l33 -148h-146v-1718h-133v1718h-209v-1718h-133v879l23 149q-153 31 -257 149.5t-104 268.5z" />
<glyph unicode="&#xb7;" horiz-adv-x="540" d="M182 551l60 264h237l-61 -264h-236z" />
<glyph unicode="&#xb8;" horiz-adv-x="567" d="M-123 -334l88 107q60 -56 133 -56q46 0 78.5 15.5t38.5 40.5q4 25 -17.5 36t-66.5 11h-98l102 235h117l-64 -137h27q70 0 113.5 -38t29.5 -107q-18 -75 -99 -124.5t-193 -49.5q-60 0 -115.5 19t-73.5 48z" />
<glyph unicode="&#xb9;" horiz-adv-x="696" d="M276 1145l25 110q75 19 143 68t103 111h104l-209 -912h-151l155 678z" />
<glyph unicode="&#xba;" horiz-adv-x="819" d="M252 1053q0 120 44.5 221t134.5 165t210 64q107 0 175.5 -68t68.5 -182q0 -190 -115.5 -318t-277.5 -128q-110 0 -175 66t-65 180zM387 1073q0 -70 32 -108.5t93 -38.5q101 0 167 94.5t66 214.5q0 147 -129 147q-72 0 -126.5 -51t-78.5 -119.5t-24 -138.5z" />
<glyph unicode="&#xbb;" horiz-adv-x="1044" d="M-10 49l395 518l-168 473h156l166 -493l-379 -498h-170zM420 49l395 518l-168 473h156l166 -493l-379 -498h-170z" />
<glyph unicode="&#xbc;" horiz-adv-x="1884" d="M209 -190l1272 1624h153l-1278 -1624h-147zM346 1145l25 110q75 19 142.5 68t102.5 111h105l-209 -912h-152l156 678zM901 6l35 156q42 38 109.5 101t220.5 214.5t241 251.5h146l-133 -604h139l-25 -119h-145l-39 -188h-154l43 188h-438zM1049 123h319l100 424 q-20 -24 -56 -65.5t-145.5 -153.5t-217.5 -205z" />
<glyph unicode="&#xbd;" horiz-adv-x="1884" d="M152 -190l1271 1624h154l-1278 -1624h-147zM289 1145l24 110q75 19 143 68t103 111h105l-209 -912h-152l156 678zM905 -182q21 111 111.5 208t169.5 138q154 79 209 106q176 86 176 217q0 55 -41.5 95.5t-110.5 40.5q-55 0 -98 -18t-70.5 -52t-43 -64t-29.5 -71l-138 43 q41 121 143 204t251 83q119 0 199.5 -70t80.5 -184q0 -127 -83 -214.5t-212 -140.5q-47 -18 -170 -76q-122 -57 -157 -120h499l-30 -125h-656z" />
<glyph unicode="&#xbe;" horiz-adv-x="1884" d="M178 748l135 43q3 -71 49.5 -116.5t131.5 -45.5q103 0 171 49t68 131q0 45 -38 78.5t-103 40.5q-40 5 -88 2l26 117q49 -6 91 -3q80 11 134 55.5t54 117.5q0 52 -39.5 85t-110.5 33q-85 0 -144.5 -50.5t-94.5 -123.5l-123 49q50 109 148 174.5t235 65.5 q119 0 194.5 -62.5t75.5 -158.5q0 -166 -176 -242q44 -18 75.5 -69.5t31.5 -98.5q0 -95 -56 -167.5t-147.5 -109t-202.5 -36.5q-124 0 -206 69t-91 173zM344 -190l1272 1624h153l-1277 -1624h-148zM934 -2l35 156q42 38 109.5 101t220.5 214.5t241 251.5h146l-134 -604h140 l-25 -119h-145l-39 -188h-154l43 188h-438zM1081 115h320l100 426q-20 -24 -56 -66t-146 -154.5t-218 -205.5z" />
<glyph unicode="&#xbf;" horiz-adv-x="962" d="M98 213q0 -117 84 -185.5t203 -68.5q71 0 139 21t122 56t93 69t70 71l-84 135q-61 -79 -146.5 -144t-168.5 -65q-71 0 -111.5 33.5t-40.5 91.5q0 65 41.5 100.5t122.5 67.5l137 54q69 28 119.5 56.5t99.5 69.5t75 96t26 122q0 104 -75.5 172.5t-193.5 68.5 q-138 0 -246.5 -65t-183.5 -168l96 -113q22 30 50.5 60t69.5 64.5t91 55.5t99 21q63 0 98 -34t35 -81q0 -60 -37.5 -94.5t-110.5 -63.5l-129 -51q-59 -23 -99 -41t-91 -50t-81 -66t-51.5 -84.5t-21.5 -110.5zM563 1247l51 230h215l-51 -230h-215z" />
<glyph unicode="&#xc0;" horiz-adv-x="1234" d="M-82 0l821 1479h265l118 -1479h-207l-22 362h-551l-197 -362h-227zM442 549h441l-43 733zM668 1843h229l72 -264h-138z" />
<glyph unicode="&#xc1;" horiz-adv-x="1234" d="M-82 0h227l197 362h551l22 -362h207l-118 1479h-265zM442 549l398 733l43 -733h-441zM795 1579l186 264h252l-289 -264h-149z" />
<glyph unicode="&#xc2;" horiz-adv-x="1234" d="M-82 0h227l197 362h551l22 -362h207l-118 1479h-265zM442 549l398 733l43 -733h-441zM584 1579l239 254h217l138 -254h-162l-98 145l-154 -145h-180z" />
<glyph unicode="&#xc3;" horiz-adv-x="1234" d="M-82 0h227l197 362h551l22 -362h207l-118 1479h-265zM442 549l398 733l43 -733h-441zM563 1608q66 188 228 188q44 0 118 -37t119 -37q71 0 107 66l102 -27q-27 -81 -85 -132.5t-140 -51.5q-46 0 -121.5 38t-122.5 38q-68 0 -106 -72z" />
<glyph unicode="&#xc4;" horiz-adv-x="1234" d="M-82 0h227l197 362h551l22 -362h207l-118 1479h-265zM442 549l398 733l43 -733h-441zM608 1593l49 201h197l-49 -201h-197zM973 1593l49 201h195l-50 -201h-194z" />
<glyph unicode="&#xc5;" horiz-adv-x="1234" d="M-82 0h227l197 362h551l22 -362h207l-118 1479h-265zM442 549l398 733l43 -733h-441zM750 1739q12 71 72.5 121.5t133.5 50.5q72 0 113 -50.5t29 -121.5q-15 -72 -76 -122t-133 -50q-73 0 -113.5 50t-25.5 122zM844 1739q-8 -35 9.5 -58.5t53.5 -23.5t62.5 23.5 t34.5 58.5q6 33 -12 56.5t-54 23.5t-62 -23.5t-32 -56.5z" />
<glyph unicode="&#xc6;" horiz-adv-x="1953" d="M-82 0l873 1479h1286l-49 -195h-916l-29 -440h717l-43 -189h-684l-29 -450h773l-50 -205h-944l23 360h-488l-217 -360h-223zM461 551h397l49 745z" />
<glyph unicode="&#xc7;" horiz-adv-x="1425" d="M154 475q0 211 65.5 402.5t179 333t276.5 225.5t349 84q197 0 319 -109.5t134 -286.5l-189 -86q-16 297 -303 297q-128 0 -245 -70t-199.5 -184t-131.5 -263.5t-49 -305.5q0 -173 80.5 -272t237.5 -99q297 0 491 318l174 -92q-119 -192 -300.5 -301t-393.5 -109 q-9 0 -26.5 1t-26.5 1l-18 -41h26q70 0 114 -38t30 -107q-18 -75 -99.5 -124.5t-193.5 -49.5q-60 0 -115.5 19t-73.5 48l88 107q60 -56 133 -56q46 0 78.5 15.5t38.5 40.5q4 25 -17.5 36t-66.5 11h-98l67 160q-158 44 -246.5 175.5t-88.5 319.5z" />
<glyph unicode="&#xc8;" horiz-adv-x="1347" d="M82 0l348 1479h1040l-45 -193h-825l-106 -448h702l-45 -183h-702l-103 -456h864l-51 -199h-1077zM760 1843h229l72 -264h-137z" />
<glyph unicode="&#xc9;" horiz-adv-x="1347" d="M82 0h1077l51 199h-864l103 456h702l45 183h-702l106 448h825l45 193h-1040zM877 1579l186 264h252l-289 -264h-149z" />
<glyph unicode="&#xca;" horiz-adv-x="1347" d="M82 0h1077l51 199h-864l103 456h702l45 183h-702l106 448h825l45 193h-1040zM676 1579l239 254h218l137 -254h-162l-98 145l-154 -145h-180z" />
<glyph unicode="&#xcb;" horiz-adv-x="1347" d="M82 0h1077l51 199h-864l103 456h702l45 183h-702l106 448h825l45 193h-1040zM690 1593l49 201h197l-49 -201h-197zM1055 1593l49 201h194l-49 -201h-194z" />
<glyph unicode="&#xcc;" horiz-adv-x="593" d="M82 0l354 1479h209l-350 -1479h-213zM330 1843h229l72 -264h-137z" />
<glyph unicode="&#xcd;" horiz-adv-x="593" d="M82 0h213l350 1479h-209zM477 1579l187 264h251l-288 -264h-150z" />
<glyph unicode="&#xce;" horiz-adv-x="593" d="M82 0h213l350 1479h-209zM256 1579l240 254h217l137 -254h-162l-98 145l-154 -145h-180z" />
<glyph unicode="&#xcf;" horiz-adv-x="593" d="M82 0h213l350 1479h-209zM281 1593l49 201h196l-49 -201h-196zM645 1593l49 201h195l-49 -201h-195z" />
<glyph unicode="&#xd0;" horiz-adv-x="1513" d="M102 680l27 119h182l160 680h506q230 0 377 -144t147 -372q0 -204 -64 -381.5t-177 -306t-277.5 -202t-357.5 -73.5h-500l158 680h-181zM385 197h301q110 0 208 44t169 118t123 168.5t78 197t26 201.5q0 177 -84 270.5t-252 93.5h-313l-117 -491h353l-29 -119h-350z" />
<glyph unicode="&#xd1;" horiz-adv-x="1497" d="M82 0l344 1479h270l385 -1207l279 1207h199l-351 -1479h-233l-404 1266l-286 -1266h-203zM707 1608q66 188 227 188q44 0 118 -37t119 -37q71 0 107 66l102 -27q-27 -81 -85 -132.5t-140 -51.5q-46 0 -121.5 38t-122.5 38q-68 0 -106 -72z" />
<glyph unicode="&#xd2;" horiz-adv-x="1574" d="M154 494q0 153 40 302.5t117.5 279.5t182.5 229.5t245 157t295 57.5q235 0 376.5 -146t141.5 -389q0 -209 -68 -398.5t-184 -327t-278 -219t-342 -81.5q-249 0 -387.5 147.5t-138.5 387.5zM362 516q0 -171 92.5 -273t260.5 -102q122 0 238 66.5t202 177t138.5 262.5 t52.5 314q0 178 -88 279t-257 101q-109 0 -210 -47t-177.5 -128t-134 -185.5t-87.5 -224.5t-30 -240zM842 1843h229l72 -264h-137z" />
<glyph unicode="&#xd3;" horiz-adv-x="1574" d="M154 494q0 -240 138.5 -387.5t387.5 -147.5q180 0 342 81.5t278 219t184 327t68 398.5q0 243 -141.5 389t-376.5 146q-155 0 -295 -57.5t-245 -157t-182.5 -229.5t-117.5 -279.5t-40 -302.5zM362 516q0 120 30 240t87.5 224.5t134 185.5t177.5 128t210 47q169 0 257 -101 t88 -279q0 -162 -52.5 -314t-138.5 -262.5t-202 -177t-238 -66.5q-168 0 -260.5 102t-92.5 273zM969 1579l186 264h252l-289 -264h-149z" />
<glyph unicode="&#xd4;" horiz-adv-x="1574" d="M154 494q0 -240 138.5 -387.5t387.5 -147.5q180 0 342 81.5t278 219t184 327t68 398.5q0 243 -141.5 389t-376.5 146q-155 0 -295 -57.5t-245 -157t-182.5 -229.5t-117.5 -279.5t-40 -302.5zM362 516q0 120 30 240t87.5 224.5t134 185.5t177.5 128t210 47q169 0 257 -101 t88 -279q0 -162 -52.5 -314t-138.5 -262.5t-202 -177t-238 -66.5q-168 0 -260.5 102t-92.5 273zM758 1579l239 254h217l138 -254h-162l-98 145l-154 -145h-180z" />
<glyph unicode="&#xd5;" horiz-adv-x="1574" d="M154 494q0 -240 138.5 -387.5t387.5 -147.5q180 0 342 81.5t278 219t184 327t68 398.5q0 243 -141.5 389t-376.5 146q-155 0 -295 -57.5t-245 -157t-182.5 -229.5t-117.5 -279.5t-40 -302.5zM362 516q0 120 30 240t87.5 224.5t134 185.5t177.5 128t210 47q169 0 257 -101 t88 -279q0 -162 -52.5 -314t-138.5 -262.5t-202 -177t-238 -66.5q-168 0 -260.5 102t-92.5 273zM737 1608q66 188 228 188q44 0 118 -37t119 -37q71 0 107 66l102 -27q-27 -81 -85 -132.5t-140 -51.5q-46 0 -121.5 38t-122.5 38q-68 0 -106 -72z" />
<glyph unicode="&#xd6;" horiz-adv-x="1574" d="M154 494q0 -240 138.5 -387.5t387.5 -147.5q180 0 342 81.5t278 219t184 327t68 398.5q0 243 -141.5 389t-376.5 146q-155 0 -295 -57.5t-245 -157t-182.5 -229.5t-117.5 -279.5t-40 -302.5zM362 516q0 120 30 240t87.5 224.5t134 185.5t177.5 128t210 47q169 0 257 -101 t88 -279q0 -162 -52.5 -314t-138.5 -262.5t-202 -177t-238 -66.5q-168 0 -260.5 102t-92.5 273zM772 1593l49 201h197l-49 -201h-197zM1137 1593l49 201h194l-49 -201h-194z" />
<glyph unicode="&#xd7;" horiz-adv-x="1085" d="M133 252l346 352l-346 352l113 113l338 -354l340 354l112 -113l-346 -352l346 -350l-112 -113l-340 353l-338 -355z" />
<glyph unicode="&#xd8;" horiz-adv-x="1576" d="M33 94l166 148q-47 105 -47 252q0 153 40.5 302.5t119 279.5t184.5 229.5t246.5 157t295.5 57.5q262 0 404 -181l157 140l78 -95l-172 -151q47 -109 47 -248q0 -208 -69 -398t-186 -327.5t-280 -219t-343 -81.5q-272 0 -412 176l-149 -133zM360 516q0 -61 13 -121 l911 805q-86 141 -287 141q-136 0 -257 -72.5t-203 -189t-129.5 -264.5t-47.5 -299zM424 279q95 -138 289 -138q122 0 237.5 66.5t201 177t137.5 262.5t52 314q0 63 -12 116z" />
<glyph unicode="&#xd9;" horiz-adv-x="1492" d="M174 381q0 67 14 133l226 965h217l-225 -955q-17 -74 -17 -110q0 -123 71.5 -193.5t205.5 -70.5q180 0 292.5 100t151.5 266l225 963h221l-225 -944q-67 -279 -243.5 -427.5t-450.5 -148.5q-212 0 -337.5 116t-125.5 306zM770 1843h229l72 -264h-137z" />
<glyph unicode="&#xda;" horiz-adv-x="1492" d="M174 381q0 -190 125.5 -306t337.5 -116q274 0 450.5 148.5t243.5 427.5l225 944h-221l-225 -963q-39 -166 -151.5 -266t-292.5 -100q-134 0 -205.5 70.5t-71.5 193.5q0 36 17 110l225 955h-217l-226 -965q-14 -66 -14 -133zM907 1579l187 264h252l-289 -264h-150z" />
<glyph unicode="&#xdb;" horiz-adv-x="1492" d="M174 381q0 -190 125.5 -306t337.5 -116q274 0 450.5 148.5t243.5 427.5l225 944h-221l-225 -963q-39 -166 -151.5 -266t-292.5 -100q-134 0 -205.5 70.5t-71.5 193.5q0 36 17 110l225 955h-217l-226 -965q-14 -66 -14 -133zM696 1579l240 254h217l137 -254h-162l-98 145 l-153 -145h-181z" />
<glyph unicode="&#xdc;" horiz-adv-x="1492" d="M174 381q0 -190 125.5 -306t337.5 -116q274 0 450.5 148.5t243.5 427.5l225 944h-221l-225 -963q-39 -166 -151.5 -266t-292.5 -100q-134 0 -205.5 70.5t-71.5 193.5q0 36 17 110l225 955h-217l-226 -965q-14 -66 -14 -133zM711 1593l49 201h196l-49 -201h-196z M1075 1593l49 201h195l-49 -201h-195z" />
<glyph unicode="&#xdd;" horiz-adv-x="1144" d="M225 1479h221l170 -752l529 752h246l-695 -938l-129 -541h-217l127 541zM733 1579l187 264h251l-288 -264h-150z" />
<glyph unicode="&#xde;" horiz-adv-x="1359" d="M72 0l356 1479h217l-65 -289h381q166 0 273 -99t107 -247q0 -163 -82 -282t-219.5 -178.5t-312.5 -59.5h-360l-76 -324h-219zM414 514h358q154 0 252 79t98 220q0 83 -57 134.5t-143 51.5h-392z" />
<glyph unicode="&#xdf;" horiz-adv-x="1200" d="M41 0l240 1067q49 217 200.5 335t370.5 118q148 0 248 -84t100 -219q0 -148 -102.5 -252.5t-257.5 -133.5q112 -8 191 -96.5t79 -228.5q0 -146 -63.5 -268t-175 -192.5t-246.5 -70.5q-105 0 -171.5 57t-72.5 163l156 34q6 -44 36.5 -71t73.5 -27q54 0 99 23t75 60.5 t51.5 85t31 95t9.5 92.5q0 130 -73.5 199t-192.5 66l41 170q83 -3 158 32.5t121.5 100.5t46.5 141q0 77 -51 122.5t-138 45.5q-139 0 -232 -88.5t-124 -226.5l-238 -1049h-190z" />
<glyph unicode="&#xe0;" horiz-adv-x="1169" d="M61 350q0 107 25.5 211t75.5 194.5t118 160t159.5 109.5t193.5 40q94 0 169 -52t118 -147l81 174h148l-244 -1040h-149v170q-169 -195 -365 -195q-154 0 -242 103t-88 272zM242 406q0 -271 217 -271q119 0 224.5 99.5t145.5 250.5q25 92 25 158q0 119 -57 192.5 t-162 73.5q-88 0 -164.5 -48.5t-125 -123.5t-76 -162t-27.5 -169zM459 1444h219l84 -293h-127z" />
<glyph unicode="&#xe1;" horiz-adv-x="1169" d="M61 350q0 -169 88 -272t242 -103q196 0 365 195v-170h149l244 1040h-148l-81 -174q-43 95 -118 147t-169 52q-102 0 -193.5 -40t-159.5 -109.5t-118 -160t-75.5 -194.5t-25.5 -211zM242 406q0 82 27.5 169t76 162t125 123.5t164.5 48.5q105 0 162 -73.5t57 -192.5 q0 -66 -25 -158q-40 -151 -145.5 -250.5t-224.5 -99.5q-217 0 -217 271zM575 1151l201 293h250l-313 -293h-138z" />
<glyph unicode="&#xe2;" horiz-adv-x="1169" d="M61 350q0 -169 88 -272t242 -103q196 0 365 195v-170h149l244 1040h-148l-81 -174q-43 95 -118 147t-169 52q-102 0 -193.5 -40t-159.5 -109.5t-118 -160t-75.5 -194.5t-25.5 -211zM242 406q0 82 27.5 169t76 162t125 123.5t164.5 48.5q105 0 162 -73.5t57 -192.5 q0 -66 -25 -158q-40 -151 -145.5 -250.5t-224.5 -99.5q-217 0 -217 271zM393 1151l242 264h207l137 -264h-154l-100 156l-160 -156h-172z" />
<glyph unicode="&#xe3;" horiz-adv-x="1169" d="M61 350q0 -169 88 -272t242 -103q196 0 365 195v-170h149l244 1040h-148l-81 -174q-43 95 -118 147t-169 52q-102 0 -193.5 -40t-159.5 -109.5t-118 -160t-75.5 -194.5t-25.5 -211zM242 406q0 82 27.5 169t76 162t125 123.5t164.5 48.5q105 0 162 -73.5t57 -192.5 q0 -66 -25 -158q-40 -151 -145.5 -250.5t-224.5 -99.5q-217 0 -217 271zM395 1184q70 190 230 190q45 0 120 -39t121 -39q70 0 107 68l104 -27q-28 -81 -87 -133.5t-140 -52.5q-47 0 -123.5 40t-124.5 40q-67 0 -106 -76z" />
<glyph unicode="&#xe4;" horiz-adv-x="1169" d="M61 350q0 -169 88 -272t242 -103q196 0 365 195v-170h149l244 1040h-148l-81 -174q-43 95 -118 147t-169 52q-102 0 -193.5 -40t-159.5 -109.5t-118 -160t-75.5 -194.5t-25.5 -211zM242 406q0 82 27.5 169t76 162t125 123.5t164.5 48.5q105 0 162 -73.5t57 -192.5 q0 -66 -25 -158q-40 -151 -145.5 -250.5t-224.5 -99.5q-217 0 -217 271zM442 1171l47 199h187l-47 -199h-187zM772 1171l47 199h185l-48 -199h-184z" />
<glyph unicode="&#xe5;" horiz-adv-x="1169" d="M61 350q0 -169 88 -272t242 -103q196 0 365 195v-170h149l244 1040h-148l-81 -174q-43 95 -118 147t-169 52q-102 0 -193.5 -40t-159.5 -109.5t-118 -160t-75.5 -194.5t-25.5 -211zM242 406q0 82 27.5 169t76 162t125 123.5t164.5 48.5q105 0 162 -73.5t57 -192.5 q0 -66 -25 -158q-40 -151 -145.5 -250.5t-224.5 -99.5q-217 0 -217 271zM514 1325q14 78 81 134.5t148 56.5t125.5 -56t30.5 -135q-17 -80 -83.5 -135t-147.5 -55q-82 0 -126.5 55t-27.5 135zM614 1325q-8 -39 13 -66.5t61 -27.5t71.5 27.5t39.5 66.5q6 38 -15 65t-61 27 t-71.5 -27t-37.5 -65z" />
<glyph unicode="&#xe6;" horiz-adv-x="1841" d="M61 350q0 107 25.5 211t75 194.5t117.5 160t159 109.5t193 40q94 0 169 -52t118 -147l81 174h148l-14 -61q136 86 301 86q162 0 259 -100t97 -265q0 -77 -35 -192l-90 -8h-643q-18 -64 -18 -117q0 -118 57.5 -183t169.5 -65q102 0 193.5 60t142.5 161l149 -69 q-85 -147 -219.5 -229.5t-294.5 -82.5q-176 0 -278 111l-21 -86h-149v170q-169 -195 -365 -195q-154 0 -241 103t-87 272zM240 406q0 -271 217 -271q119 0 224.5 99.5t145.5 250.5q25 92 25 158q0 119 -57 192.5t-162 73.5q-88 0 -164.5 -48.5t-125 -123.5t-76 -162 t-27.5 -169zM1061 641h538q13 42 13 86q0 88 -55.5 139.5t-151.5 51.5q-114 0 -209 -77.5t-135 -199.5z" />
<glyph unicode="&#xe7;" horiz-adv-x="1030" d="M61 356q0 105 26 206.5t78 192.5t124.5 160t173 109.5t215.5 40.5q145 0 236 -83.5t106 -221.5l-158 -68q-8 101 -59.5 158t-149.5 57q-117 0 -213 -74t-148 -191t-52 -247q0 -258 227 -258q88 0 168 53t141 136l131 -90q-85 -125 -204 -193t-263 -68h-10l-27 -57h27 q70 0 113.5 -38t29.5 -107q-18 -75 -99 -124.5t-193 -49.5q-60 0 -115.5 19t-73.5 48l88 107q60 -56 133 -56q46 0 78.5 15.5t38.5 40.5q4 25 -17.5 36t-66.5 11h-98l74 172q-122 31 -191.5 126t-69.5 238z" />
<glyph unicode="&#xe8;" horiz-adv-x="1073" d="M66 360q0 103 24 203.5t74.5 191.5t121 160t170 109.5t214.5 40.5q162 0 259 -100t97 -265q0 -77 -35 -192l-90 -8h-643q-18 -64 -18 -117q0 -118 57.5 -183t169.5 -65q101 0 191 60.5t141 162.5l153 -71q-85 -147 -219.5 -229.5t-294.5 -82.5q-169 0 -270.5 103.5 t-101.5 281.5zM297 641h539q12 39 12 86q0 88 -55.5 139.5t-151.5 51.5q-114 0 -209 -77.5t-135 -199.5zM459 1444h219l84 -293h-127z" />
<glyph unicode="&#xe9;" horiz-adv-x="1073" d="M66 360q0 103 24 203.5t74.5 191.5t121 160t170 109.5t214.5 40.5q162 0 259 -100t97 -265q0 -77 -35 -192l-90 -8h-643q-18 -64 -18 -117q0 -118 57.5 -183t169.5 -65q101 0 191 60.5t141 162.5l153 -71q-85 -147 -219.5 -229.5t-294.5 -82.5q-169 0 -270.5 103.5 t-101.5 281.5zM297 641h539q12 39 12 86q0 88 -55.5 139.5t-151.5 51.5q-114 0 -209 -77.5t-135 -199.5zM586 1151l200 293h250l-313 -293h-137z" />
<glyph unicode="&#xea;" horiz-adv-x="1073" d="M66 360q0 103 24 203.5t74.5 191.5t121 160t170 109.5t214.5 40.5q162 0 259 -100t97 -265q0 -77 -35 -192l-90 -8h-643q-18 -64 -18 -117q0 -118 57.5 -183t169.5 -65q101 0 191 60.5t141 162.5l153 -71q-85 -147 -219.5 -229.5t-294.5 -82.5q-169 0 -270.5 103.5 t-101.5 281.5zM297 641h539q12 39 12 86q0 88 -55.5 139.5t-151.5 51.5q-114 0 -209 -77.5t-135 -199.5zM393 1151l242 264h207l137 -264h-154l-100 156l-160 -156h-172z" />
<glyph unicode="&#xeb;" horiz-adv-x="1073" d="M66 360q0 103 24 203.5t74.5 191.5t121 160t170 109.5t214.5 40.5q162 0 259 -100t97 -265q0 -77 -35 -192l-90 -8h-643q-18 -64 -18 -117q0 -118 57.5 -183t169.5 -65q101 0 191 60.5t141 162.5l153 -71q-85 -147 -219.5 -229.5t-294.5 -82.5q-169 0 -270.5 103.5 t-101.5 281.5zM297 641h539q12 39 12 86q0 88 -55.5 139.5t-151.5 51.5q-114 0 -209 -77.5t-135 -199.5zM422 1171l47 199h186l-47 -199h-186zM752 1171l47 199h184l-47 -199h-184z" />
<glyph unicode="&#xec;" horiz-adv-x="483" d="M37 0l235 1040h187l-238 -1040h-184zM141 1444h219l84 -293h-127z" />
<glyph unicode="&#xed;" horiz-adv-x="483" d="M37 0h184l238 1040h-187zM299 1151l201 293h250l-314 -293h-137z" />
<glyph unicode="&#xee;" horiz-adv-x="483" d="M37 0h184l238 1040h-187zM86 1151l242 264h207l137 -264h-154l-100 156l-160 -156h-172z" />
<glyph unicode="&#xef;" horiz-adv-x="483" d="M37 0h184l238 1040h-187zM125 1171l47 199h186l-47 -199h-186zM455 1171l47 199h184l-47 -199h-184z" />
<glyph unicode="&#xf0;" horiz-adv-x="1130" d="M61 346q0 106 23.5 209t72 195.5t117 162.5t164.5 111t207 41q61 0 115.5 -22t92.5 -58t64 -76t41 -82q19 254 -120 406l-324 -127l-20 100l254 101q-110 66 -271 77l103 136q180 -20 340 -146l264 105l18 -101l-211 -84q119 -183 119 -376q0 -122 -27 -253t-83 -257 t-133.5 -226t-188.5 -161.5t-238 -61.5q-165 0 -272 107t-107 280zM240 385q0 -122 60.5 -193t168.5 -71q107 0 199.5 80.5t143 200t50.5 241.5q0 126 -64 198t-167 72q-92 0 -169.5 -53.5t-124 -135.5t-72 -171t-25.5 -168z" />
<glyph unicode="&#xf1;" horiz-adv-x="1163" d="M41 0h188l133 578q20 70 56 128t76 94.5t84 61.5t79 35t62 10q81 0 123.5 -44.5t42.5 -125.5q0 -37 -8 -73l-152 -664h190l156 686q10 41 10 92q0 128 -74.5 207.5t-207.5 79.5q-102 0 -202.5 -63t-172.5 -160v198h-150zM406 1184q70 190 229 190q45 0 120.5 -39 t121.5 -39q69 0 106 68l104 -27q-28 -81 -87 -133.5t-140 -52.5q-47 0 -123.5 40t-124.5 40q-67 0 -106 -76z" />
<glyph unicode="&#xf2;" horiz-adv-x="1114" d="M59 358q0 142 43 270t119.5 225t192.5 154.5t254 57.5q167 0 274 -106.5t107 -278.5q0 -197 -81.5 -359t-221.5 -254t-308 -92t-273.5 107t-105.5 276zM248 387q0 -119 55.5 -186.5t165.5 -67.5q84 0 158 44.5t124.5 117.5t79.5 167t29 193q0 120 -58 189t-167 69 q-92 0 -168.5 -50.5t-122.5 -129.5t-71 -169t-25 -177zM469 1444h219l84 -293h-127z" />
<glyph unicode="&#xf3;" horiz-adv-x="1114" d="M59 358q0 -169 105.5 -276t273.5 -107t308 92t221.5 254t81.5 359q0 172 -107 278.5t-274 106.5q-138 0 -254 -57.5t-192.5 -154.5t-119.5 -225t-43 -270zM248 387q0 87 25 177t71 169t122.5 129.5t168.5 50.5q109 0 167 -69t58 -189q0 -99 -29 -193t-79.5 -167 t-124.5 -117.5t-158 -44.5q-110 0 -165.5 67.5t-55.5 186.5zM596 1151l201 293h250l-314 -293h-137z" />
<glyph unicode="&#xf4;" horiz-adv-x="1114" d="M59 358q0 -169 105.5 -276t273.5 -107t308 92t221.5 254t81.5 359q0 172 -107 278.5t-274 106.5q-138 0 -254 -57.5t-192.5 -154.5t-119.5 -225t-43 -270zM248 387q0 87 25 177t71 169t122.5 129.5t168.5 50.5q109 0 167 -69t58 -189q0 -99 -29 -193t-79.5 -167 t-124.5 -117.5t-158 -44.5q-110 0 -165.5 67.5t-55.5 186.5zM403 1151l242 264h207l137 -264h-153l-101 156l-160 -156h-172z" />
<glyph unicode="&#xf5;" horiz-adv-x="1114" d="M59 358q0 -169 105.5 -276t273.5 -107t308 92t221.5 254t81.5 359q0 172 -107 278.5t-274 106.5q-138 0 -254 -57.5t-192.5 -154.5t-119.5 -225t-43 -270zM248 387q0 87 25 177t71 169t122.5 129.5t168.5 50.5q109 0 167 -69t58 -189q0 -99 -29 -193t-79.5 -167 t-124.5 -117.5t-158 -44.5q-110 0 -165.5 67.5t-55.5 186.5zM365 1184q70 190 229 190q45 0 120.5 -39t121.5 -39q69 0 106 68l105 -27q-28 -81 -87 -133.5t-141 -52.5q-47 0 -123.5 40t-124.5 40q-67 0 -106 -76z" />
<glyph unicode="&#xf6;" horiz-adv-x="1114" d="M59 358q0 -169 105.5 -276t273.5 -107t308 92t221.5 254t81.5 359q0 172 -107 278.5t-274 106.5q-138 0 -254 -57.5t-192.5 -154.5t-119.5 -225t-43 -270zM248 387q0 87 25 177t71 169t122.5 129.5t168.5 50.5q109 0 167 -69t58 -189q0 -99 -29 -193t-79.5 -167 t-124.5 -117.5t-158 -44.5q-110 0 -165.5 67.5t-55.5 186.5zM442 1171l47 199h187l-47 -199h-187zM772 1171l47 199h185l-48 -199h-184z" />
<glyph unicode="&#xf7;" horiz-adv-x="1064" d="M78 469v160h907v-160h-907zM424 0v252h221v-252h-221zM424 844v252h221v-252h-221z" />
<glyph unicode="&#xf8;" horiz-adv-x="1161" d="M-51 25l172 159q-37 75 -37 174q0 142 42.5 270t119.5 225t192.5 154.5t253.5 57.5q159 0 269 -107l172 158l73 -88l-178 -164q43 -76 43 -184q0 -197 -80.5 -359t-220 -254t-307.5 -92q-170 0 -277 113l-161 -149zM272 387q0 -41 4 -61l555 514q-57 73 -172 73 q-92 0 -168.5 -50.5t-122.5 -129.5t-71 -169t-25 -177zM319 209q54 -76 175 -76q84 0 158 44.5t124.5 117.5t79.5 167t29 193q0 40 -6 70z" />
<glyph unicode="&#xf9;" horiz-adv-x="1144" d="M82 260q0 52 10 98l162 682h190l-157 -659q-11 -46 -11 -72q0 -83 43.5 -127.5t129.5 -44.5q43 0 94.5 21.5t103 60.5t94 104t60.5 142l135 575h188l-235 -1040h-148v203q-63 -101 -166 -164.5t-206 -63.5q-132 0 -209.5 79.5t-77.5 205.5zM469 1444h219l84 -293h-127z " />
<glyph unicode="&#xfa;" horiz-adv-x="1144" d="M82 260q0 -126 77.5 -205.5t209.5 -79.5q103 0 206 63.5t166 164.5v-203h148l235 1040h-188l-135 -575q-18 -77 -60.5 -142t-94 -104t-103 -60.5t-94.5 -21.5q-86 0 -129.5 44.5t-43.5 127.5q0 26 11 72l157 659h-190l-162 -682q-10 -46 -10 -98zM627 1151l200 293h250 l-313 -293h-137z" />
<glyph unicode="&#xfb;" horiz-adv-x="1144" d="M82 260q0 -126 77.5 -205.5t209.5 -79.5q103 0 206 63.5t166 164.5v-203h148l235 1040h-188l-135 -575q-18 -77 -60.5 -142t-94 -104t-103 -60.5t-94.5 -21.5q-86 0 -129.5 44.5t-43.5 127.5q0 26 11 72l157 659h-190l-162 -682q-10 -46 -10 -98zM403 1151l242 264h207 l137 -264h-153l-101 156l-160 -156h-172z" />
<glyph unicode="&#xfc;" horiz-adv-x="1144" d="M82 260q0 -126 77.5 -205.5t209.5 -79.5q103 0 206 63.5t166 164.5v-203h148l235 1040h-188l-135 -575q-18 -77 -60.5 -142t-94 -104t-103 -60.5t-94.5 -21.5q-86 0 -129.5 44.5t-43.5 127.5q0 26 11 72l157 659h-190l-162 -682q-10 -46 -10 -98zM453 1171l47 199h186 l-47 -199h-186zM782 1171l47 199h185l-47 -199h-185z" />
<glyph unicode="&#xfd;" horiz-adv-x="970" d="M-133 -330q73 -53 166 -53q117 0 201 59t151 172q99 168 268.5 466t289.5 512l120 214h-201l-436 -817l-86 817h-186l135 -1015l-66 -117q-73 -129 -172 -129q-53 0 -88 28zM535 1151l200 293h250l-313 -293h-137z" />
<glyph unicode="&#xfe;" horiz-adv-x="1159" d="M-43 -367l416 1846h192l-143 -615q142 198 364 201q143 2 234.5 -101.5t91.5 -271.5q0 -104 -26.5 -208t-78 -195t-121 -161.5t-162 -111.5t-194.5 -41q-96 0 -167 59.5t-95 153.5l-123 -555h-188zM334 391q-1 -116 57.5 -182t151.5 -66q73 0 136 33.5t106.5 87t75 121.5 t46.5 136.5t15 131.5q0 113 -56 182.5t-157 69.5q-112 0 -206 -92t-136 -238q-33 -115 -33 -184z" />
<glyph unicode="&#xff;" horiz-adv-x="970" d="M-133 -330q73 -53 166 -53q117 0 201 59t151 172q99 168 268.5 466t289.5 512l120 214h-201l-436 -817l-86 817h-186l135 -1015l-66 -117q-73 -129 -172 -129q-53 0 -88 28zM371 1171l47 199h186l-47 -199h-186zM700 1171l48 199h184l-47 -199h-185z" />
<glyph unicode="&#x152;" horiz-adv-x="2025" d="M154 555q0 270 130 481.5t358 327t515 115.5h991l-45 -195h-788l-101 -440h678l-49 -189h-672l-104 -450h823l-49 -205h-1005q-133 0 -255 37.5t-217.5 106.5t-152.5 175.5t-57 235.5zM362 582q0 -190 131 -291.5t351 -95.5l254 1093q-172 0 -313 -56.5t-232.5 -153.5 t-141 -224.5t-49.5 -271.5z" />
<glyph unicode="&#x153;" horiz-adv-x="1847" d="M63 354q0 141 43 270t120.5 227t193.5 156t254 58q118 0 204 -52.5t130 -146.5q167 199 432 199q162 0 259 -100t97 -265q0 -77 -35 -192l-90 -8h-643q-18 -64 -18 -117q0 -118 57.5 -183t169.5 -65q102 0 193.5 60t142.5 161l149 -69q-85 -147 -219.5 -229.5 t-294.5 -82.5q-120 0 -208.5 53.5t-131.5 151.5q-83 -97 -195 -151t-237 -54q-168 0 -270.5 104t-102.5 275zM250 387q0 -121 54.5 -187.5t166.5 -66.5q84 0 158 44.5t124.5 117.5t79.5 167t29 193q0 123 -56.5 190.5t-168.5 67.5q-92 0 -168.5 -50.5t-122.5 -129.5 t-71 -169t-25 -177zM1067 641h539q12 39 12 86q0 88 -55.5 139.5t-151.5 51.5q-114 0 -209 -77.5t-135 -199.5z" />
<glyph unicode="&#x178;" horiz-adv-x="1144" d="M225 1479h221l170 -752l529 752h246l-695 -938l-129 -541h-217l127 541zM537 1593l49 201h196l-49 -201h-196zM901 1593l49 201h195l-49 -201h-195z" />
<glyph unicode="&#x2c6;" horiz-adv-x="815" d="M229 1151l242 264h207l137 -264h-153l-101 156l-160 -156h-172z" />
<glyph unicode="&#x2dc;" horiz-adv-x="815" d="M231 1184q70 190 230 190q45 0 120 -39t121 -39q70 0 107 68l104 -27q-28 -81 -87 -133.5t-140 -52.5q-47 0 -123.5 40t-124.5 40q-67 0 -106 -76z" />
<glyph unicode="&#x2000;" horiz-adv-x="955" />
<glyph unicode="&#x2001;" horiz-adv-x="1911" />
<glyph unicode="&#x2002;" horiz-adv-x="955" />
<glyph unicode="&#x2003;" horiz-adv-x="1911" />
<glyph unicode="&#x2004;" horiz-adv-x="637" />
<glyph unicode="&#x2005;" horiz-adv-x="477" />
<glyph unicode="&#x2006;" horiz-adv-x="318" />
<glyph unicode="&#x2007;" horiz-adv-x="318" />
<glyph unicode="&#x2008;" horiz-adv-x="238" />
<glyph unicode="&#x2009;" horiz-adv-x="382" />
<glyph unicode="&#x200a;" horiz-adv-x="106" />
<glyph unicode="&#x2010;" horiz-adv-x="737" d="M106 551l68 172h563l-71 -172h-560z" />
<glyph unicode="&#x2011;" horiz-adv-x="737" d="M106 551l68 172h563l-71 -172h-560z" />
<glyph unicode="&#x2012;" horiz-adv-x="737" d="M106 551l68 172h563l-71 -172h-560z" />
<glyph unicode="&#x2013;" horiz-adv-x="1105" d="M76 551l39 156h970l-38 -156h-971z" />
<glyph unicode="&#x2014;" horiz-adv-x="1951" d="M-12 551l32 156h1991l-35 -156h-1988z" />
<glyph unicode="&#x2018;" horiz-adv-x="419" d="M205 997l55 207q75 282 336 318l-27 -97q-152 -32 -190 -174l110 -75l-47 -179h-237z" />
<glyph unicode="&#x2019;" horiz-adv-x="419" d="M164 954l26 97q153 32 191 174l-111 75l47 179h238l-55 -207q-75 -282 -336 -318z" />
<glyph unicode="&#x201a;" horiz-adv-x="419" d="M-100 -270l26 96q153 32 191 174l-111 76l47 178h238l-55 -207q-75 -281 -336 -317z" />
<glyph unicode="&#x201c;" horiz-adv-x="778" d="M229 995l58 207q40 149 132.5 225t213.5 93l-27 -97q-162 -34 -200 -174l108 -75l-49 -179h-236zM563 995l58 207q76 282 335 318l-26 -97q-153 -32 -191 -174l111 -75l-49 -179h-238z" />
<glyph unicode="&#x201d;" horiz-adv-x="778" d="M176 954l27 97q152 32 190 174l-110 75l49 179h237l-57 -207q-75 -282 -336 -318zM500 954l26 97q163 34 201 174l-109 75l50 179h235l-57 -207q-40 -149 -132.5 -225t-213.5 -93z" />
<glyph unicode="&#x201e;" horiz-adv-x="778" d="M-100 -270l26 96q153 32 191 174l-111 76l49 178h238l-57 -207q-75 -281 -336 -317zM223 -270l27 96q163 34 201 174l-109 76l49 178h236l-58 -207q-40 -149 -132.5 -224.5t-213.5 -92.5z" />
<glyph unicode="&#x2022;" horiz-adv-x="872" d="M164 522q0 113 80 193t192 80t192.5 -80.5t80.5 -192.5t-80 -192t-193 -80q-112 0 -192 80t-80 192z" />
<glyph unicode="&#x2026;" horiz-adv-x="1701" d="M61 0l52 244h219l-58 -244h-213zM659 0l52 244h211l-52 -244h-211zM1249 0l56 244h213l-52 -244h-217z" />
<glyph unicode="&#x202f;" horiz-adv-x="382" />
<glyph unicode="&#x2039;" horiz-adv-x="696" d="M131 543l418 497h190l-432 -520l199 -471h-174z" />
<glyph unicode="&#x203a;" horiz-adv-x="696" d="M-6 49l432 520l-199 471h174l201 -493l-418 -498h-190z" />
<glyph unicode="&#x205f;" horiz-adv-x="477" />
<glyph unicode="&#x20ac;" horiz-adv-x="1228" d="M8 555l29 113h145q15 91 43 188h-123l29 113h135q48 118 116.5 216.5t156.5 174.5t199.5 118t234.5 42q155 0 264 -101.5t137 -263.5l-180 -82q-20 120 -83 189t-173 69q-147 0 -262 -99t-193 -263h404l-29 -113h-420q-31 -96 -49 -188h399l-28 -113h-385q-4 -33 -4 -96 q0 -144 69.5 -223.5t200.5 -79.5q113 0 217.5 72.5t181.5 197.5l158 -109q-110 -172 -262 -265t-328 -93q-212 0 -326 137t-114 369q0 59 2 90h-162z" />
<glyph unicode="&#x2122;" horiz-adv-x="2060" d="M135 1337v142h776v-142h-309v-815h-158v815h-309zM1012 522v957h237l242 -752l244 752h235v-957h-145v801l-264 -801h-150l-254 801v-801h-145z" />
<glyph unicode="&#xe000;" horiz-adv-x="1044" d="M0 0v1044h1044v-1044h-1044z" />
</font>
</defs>
</svg>
